<?xml version="1.0" standalone="no"?>
<!DOCTYPE svg PUBLIC "-//W3C//DTD SVG 20010904//EN"
 "http://www.w3.org/TR/2001/REC-SVG-20010904/DTD/svg10.dtd">
<svg version="1.0" xmlns="http://www.w3.org/2000/svg"
 width="960.000000pt" height="960.000000pt" viewBox="0 0 960.000000 960.000000"
 preserveAspectRatio="xMidYMid meet">

<g transform="translate(0.000000,960.000000) scale(0.100000,-0.100000)"
fill="#000000" stroke="none">
<path d="M2318 8783 c-22 -25 -58 -99 -58 -118 0 -9 -4 -14 -9 -11 -14 9 -21
-20 -21 -82 1 -68 13 -129 42 -199 24 -58 21 -68 -16 -59 -28 7 -71 72 -87
131 -6 20 -17 39 -25 42 -20 8 -30 -5 -16 -19 13 -13 17 -78 4 -78 -9 0 -27
47 -38 100 -12 58 -13 80 -3 74 5 -3 9 -12 9 -20 0 -8 4 -14 10 -14 5 0 7 -7
3 -16 -4 -12 -2 -15 8 -12 8 3 13 17 13 34 -1 16 -2 65 -3 108 0 44 -4 76 -8
72 -4 -4 -12 -37 -18 -74 l-12 -67 -7 53 c-10 65 -24 57 -33 -16 -3 -28 -9
-49 -13 -47 -4 3 -6 -24 -4 -59 3 -61 30 -148 59 -190 38 -54 -11 -42 -63 16
-59 65 -88 114 -112 191 -38 119 -36 116 -48 87 -10 -23 -11 -21 -12 20 l0 45
-20 -25 c-16 -21 -18 -36 -14 -89 4 -44 2 -66 -6 -71 -27 -17 79 -204 153
-269 60 -53 68 -63 64 -74 -5 -17 -64 -18 -78 -1 -6 7 -15 11 -20 8 -5 -3 -23
11 -40 30 -17 20 -40 36 -50 36 -10 0 -19 7 -19 15 0 8 -21 39 -47 68 -27 29
-55 63 -64 76 -15 24 -15 24 -37 5 -25 -21 -29 -67 -10 -111 23 -53 62 -105
85 -114 13 -5 28 -21 34 -36 14 -36 39 -54 69 -48 18 4 21 3 11 -4 -19 -12 -2
-34 39 -51 29 -12 39 -33 21 -44 -4 -3 -36 13 -69 34 -66 43 -89 49 -99 24
-16 -43 99 -164 156 -164 21 0 27 -5 29 -25 1 -14 -2 -24 -6 -23 -4 1 -17 -1
-29 -6 -19 -6 -21 -11 -12 -27 6 -11 31 -33 56 -49 25 -16 75 -59 112 -97 83
-84 213 -163 307 -187 168 -43 352 -103 372 -121 11 -10 9 -17 -10 -41 -33
-40 -93 -135 -101 -159 -7 -19 -6 -19 10 2 10 11 39 53 65 91 l48 70 52 0 c29
0 70 7 92 16 36 15 37 15 25 0 -12 -15 -11 -16 11 -9 22 7 23 6 12 -8 -10 -12
-10 -16 0 -20 10 -4 10 -6 1 -6 -7 -1 -13 -5 -13 -11 0 -13 51 -13 84 -1 22 9
24 8 20 -15 -4 -21 -1 -24 26 -24 23 0 30 -4 30 -19 0 -15 8 -21 33 -23 20 -2
32 -8 32 -18 0 -10 10 -15 27 -15 21 1 25 -3 22 -21 -3 -15 2 -23 17 -27 12
-3 18 -10 14 -16 -3 -7 2 -11 14 -11 12 0 21 -7 21 -15 0 -8 8 -15 19 -15 11
0 21 -9 24 -21 3 -12 10 -18 15 -15 6 3 13 -1 16 -10 4 -11 -18 -50 -63 -113
-119 -165 -232 -370 -306 -551 -14 -36 -30 -74 -35 -85 -15 -32 -68 -201 -95
-300 -30 -111 -59 -260 -82 -425 -25 -177 -25 -643 1 -815 53 -364 126 -616
262 -915 158 -347 420 -685 704 -907 264 -206 552 -333 870 -384 136 -22 431
-17 560 10 115 24 283 73 345 101 22 10 66 29 97 43 31 14 89 44 130 68 603
352 1045 1039 1182 1839 34 197 41 300 40 570 0 227 -4 302 -22 427 -12 84
-26 172 -31 195 -6 24 -20 84 -31 133 -61 264 -180 556 -336 822 -126 215
-364 490 -548 633 l-68 53 35 19 c26 13 43 15 59 9 13 -5 99 -4 198 1 115 6
210 6 275 0 55 -6 161 -8 235 -6 l135 5 39 -51 c54 -71 65 -73 28 -5 -18 32
-32 62 -32 66 0 5 19 13 43 19 209 52 278 84 472 220 44 31 122 76 173 99 122
56 183 91 177 101 -3 4 10 11 29 14 20 4 47 21 68 44 19 20 51 48 71 62 69 48
127 154 105 193 -14 27 -23 20 -35 -26 -7 -23 -21 -53 -32 -66 -27 -31 -27
-16 -1 27 20 33 27 72 12 72 -9 0 -72 -80 -72 -92 0 -4 -4 -8 -10 -8 -19 0
-10 38 13 53 29 19 74 102 82 153 5 31 3 44 -14 63 l-21 24 0 -39 c0 -21 -5
-46 -10 -54 -8 -11 -10 -3 -8 30 2 25 -1 47 -7 50 -5 3 -22 -20 -37 -50 -30
-61 -36 -56 -13 10 19 55 19 120 -1 148 -15 22 -44 30 -44 13 0 -5 -7 -8 -16
-7 -13 1 -22 -19 -39 -79 -12 -44 -29 -97 -38 -119 -9 -21 -17 -47 -17 -57 0
-11 -5 -16 -12 -14 -8 3 -20 -11 -30 -35 -9 -22 -21 -40 -27 -40 -13 0 -15 32
-2 46 4 5 13 24 20 43 10 30 9 32 -6 20 -10 -9 -6 3 10 32 22 38 27 58 27 117
0 80 -10 116 -38 131 -18 10 -19 7 -16 -37 2 -26 1 -38 -2 -27 -8 25 -23 45
-36 45 -5 0 -8 -31 -7 -68 1 -38 -2 -75 -6 -82 -5 -8 -8 -39 -8 -70 0 -45 -4
-60 -19 -69 -15 -9 -18 -8 -18 5 0 8 5 24 11 35 13 26 -5 121 -33 167 -20 33
-58 44 -58 17 0 -9 -6 -12 -16 -8 -14 5 -15 0 -9 -38 7 -42 7 -43 -11 -29 -11
8 -22 19 -25 24 -10 14 -29 -3 -22 -20 4 -11 0 -15 -13 -12 -16 2 -19 -2 -16
-29 2 -37 0 -38 -28 -21 -30 19 -31 6 -5 -47 14 -29 24 -67 24 -90 l-1 -40 -9
35 c-23 85 -35 114 -48 118 -12 4 -13 -9 -7 -74 l7 -79 -35 34 c-20 19 -36 30
-36 23 0 -7 -7 -12 -16 -12 -13 0 -14 -11 -8 -80 4 -55 3 -80 -4 -80 -6 0 -14
5 -17 10 -3 6 -15 10 -26 10 -14 0 -19 -7 -19 -24 0 -14 -4 -28 -10 -31 -5 -3
-10 -1 -10 4 0 20 -39 11 -45 -10 -4 -12 -13 -18 -20 -15 -19 7 -33 -14 -41
-63 -8 -52 -37 -81 -119 -121 -65 -33 -227 -67 -266 -57 -13 3 -57 36 -97 73
-231 212 -525 391 -826 504 -303 114 -722 170 -1046 141 -427 -39 -756 -149
-1130 -379 -41 -26 -92 -60 -113 -76 l-37 -30 -88 22 c-48 11 -100 24 -117 27
-28 6 -92 47 -106 68 -4 5 -13 6 -20 2 -8 -5 -11 -5 -7 0 4 4 1 20 -6 34 -8
14 -17 34 -20 44 -3 9 -10 17 -17 17 -7 0 -9 -18 -5 -54 4 -43 2 -55 -10 -60
-9 -3 -21 -3 -26 1 -16 9 -60 13 -81 7 -14 -5 -16 -9 -6 -20 6 -7 16 -11 22
-7 5 3 7 1 4 -5 -12 -18 -49 0 -66 31 -9 17 -23 38 -32 47 -8 9 -18 24 -22 32
-3 9 -19 19 -36 23 -31 7 -101 77 -101 102 0 7 -4 13 -10 13 -15 0 -12 -36 5
-50 8 -7 13 -16 10 -20 -3 -5 -1 -11 5 -15 5 -3 10 -15 10 -26 0 -28 -17 -14
-35 27 -8 19 -19 34 -25 34 -8 0 -9 10 -5 29 5 24 2 32 -15 41 -13 7 -19 18
-16 26 3 8 2 14 -3 14 -12 0 -35 123 -34 181 0 45 18 114 34 135 17 21 15 76
-3 87 -37 24 -114 -92 -106 -159 2 -18 1 -31 -3 -28 -14 8 -31 -96 -24 -148 7
-47 6 -51 -8 -40 -23 19 -77 130 -77 158 0 13 -4 24 -10 24 -13 0 -13 -55 -1
-98 12 -42 -4 -42 -19 1 -24 70 -25 207 0 207 8 0 6 -37 -4 -66 -2 -6 -1 -16
3 -22 14 -23 29 5 35 67 4 35 14 77 22 93 9 17 13 32 10 35 -3 3 -13 -11 -22
-31 -10 -20 -24 -36 -32 -36 -10 0 -7 12 12 46 14 26 26 48 26 50 0 11 -29 2
-42 -13z m192 -143 c0 -5 -2 -10 -4 -10 -3 0 -8 5 -11 10 -3 6 -1 10 4 10 6 0
11 -4 11 -10z m-23 -117 c-3 -10 -5 -4 -5 12 0 17 2 24 5 18 2 -7 2 -21 0 -30z
m-587 -44 c5 -16 5 -29 0 -29 -9 0 -30 55 -30 79 1 13 2 13 11 -2 6 -10 15
-32 19 -48z m592 -68 c5 -48 4 -52 -8 -36 -8 10 -12 33 -9 52 3 24 0 36 -11
40 -13 5 -13 7 -2 14 17 11 25 -5 30 -70z m5354 0 c-9 -82 -14 -103 -26 -115
-18 -18 -23 3 -7 36 9 18 19 57 23 86 9 72 18 66 10 -7z m-2636 -5 c162 -26
334 -70 487 -127 82 -30 298 -131 388 -182 75 -43 240 -156 311 -214 39 -32
96 -78 127 -103 31 -25 56 -48 56 -51 1 -3 -65 -16 -146 -29 -82 -12 -152 -26
-158 -31 -5 -5 -18 -9 -30 -9 -17 0 -17 2 -5 10 11 8 7 9 -15 6 -16 -3 -55 -8
-85 -11 -131 -13 -281 -39 -388 -65 l-116 -29 -73 34 c-121 57 -315 112 -470
135 -93 13 -373 13 -466 0 -142 -21 -367 -84 -448 -125 -29 -16 -32 -15 -53 3
-26 24 -202 145 -236 162 -14 7 -121 46 -240 87 -118 40 -218 77 -223 82 -16
16 198 149 385 239 240 116 489 191 733 221 50 6 104 13 120 15 67 9 455 -3
545 -18z m2454 9 c3 -8 1 -15 -4 -15 -6 0 -10 7 -10 15 0 8 2 15 4 15 2 0 6
-7 10 -15z m-5734 -16 c0 -6 -4 -7 -10 -4 -5 3 -10 11 -10 16 0 6 5 7 10 4 6
-3 10 -11 10 -16z m5598 -98 c2 -36 1 -63 -3 -59 -5 5 -9 27 -11 50 -1 23 -5
58 -8 78 -5 29 -4 32 5 16 6 -10 14 -48 17 -85z m-5168 69 c0 -11 -2 -20 -4
-20 -2 0 -6 9 -9 20 -3 11 -1 20 4 20 5 0 9 -9 9 -20z m5297 -43 c-7 -21 -12
-25 -18 -16 -4 8 -4 18 1 23 6 6 10 21 11 36 0 22 1 23 8 5 5 -11 4 -33 -2
-48z m-5905 -67 c3 0 14 -7 22 -16 15 -15 14 -34 -3 -34 -11 0 -46 33 -47 45
-1 6 -5 21 -8 35 -7 25 -7 25 11 -2 10 -16 21 -28 25 -28z m5681 30 c3 -11 1
-20 -4 -20 -5 0 -9 9 -9 20 0 11 2 20 4 20 2 0 6 -9 9 -20z m494 -50 c-6 -17
-22 -43 -34 -58 -22 -27 -22 -27 -23 -4 0 13 4 20 10 17 6 -3 10 1 10 9 0 9 4
16 8 16 5 0 14 11 20 25 16 35 23 31 9 -5z m-85 -42 c-15 -31 -30 -57 -34 -57
-10 -1 -3 25 11 43 11 13 11 16 0 16 -7 0 0 13 16 30 16 16 30 29 31 27 2 -1
-9 -28 -24 -59z m-5272 24 c-6 -2 -1 -15 10 -29 21 -27 26 -53 11 -53 -5 0
-12 9 -16 19 -3 10 -15 21 -27 24 -14 4 -19 11 -14 22 3 9 6 23 6 31 0 12 3
12 20 2 11 -7 16 -14 10 -16z m4874 13 c-4 -8 -9 -15 -13 -15 -4 0 -8 7 -8 15
0 8 6 15 13 15 8 0 11 -6 8 -15z m-4935 -64 c-7 -2 -6 -9 3 -20 7 -9 3 -6 -9
7 -28 29 -30 46 -3 30 11 -7 15 -15 9 -17z m-582 -77 c-3 -3 -12 -4 -19 -1 -8
3 -5 6 6 6 11 1 17 -2 13 -5z m880 -34 c11 -16 10 -18 -3 -13 -15 5 -14 3 1
-20 19 -29 11 -35 -20 -14 -32 21 -77 38 -70 27 10 -16 -21 -12 -35 5 -10 12
-3 14 47 12 42 -1 57 1 56 11 -4 19 11 14 24 -8z m5120 -27 c-9 -9 -20 -14
-24 -10 -3 4 2 14 13 21 10 8 21 12 23 10 3 -2 -3 -12 -12 -21z m-82 -2 c-3
-6 -11 -11 -17 -11 -6 0 -6 6 2 15 14 17 26 13 15 -4z m-21 -36 c-6 -16 -24
-21 -24 -7 0 11 11 22 21 22 5 0 6 -7 3 -15z m-4611 -42 c-7 -2 -19 -2 -25 0
-7 3 -2 5 12 5 14 0 19 -2 13 -5z m-310 -10 c-7 -2 -19 -2 -25 0 -7 3 -2 5 12
5 14 0 19 -2 13 -5z m78 -7 c-6 -7 -22 -11 -36 -8 -38 7 -30 22 11 22 30 0 34
-3 25 -14z m289 4 c0 -5 -12 -10 -27 -9 -25 0 -26 1 -8 9 27 12 35 12 35 0z
m-465 -10 c-3 -5 -12 -7 -20 -3 -21 7 -19 13 6 13 11 0 18 -4 14 -10z m-575
-25 c7 -8 20 -15 29 -15 13 0 13 -2 2 -9 -11 -7 -3 -14 29 -29 23 -10 38 -22
33 -25 -6 -4 -19 0 -29 8 -10 8 -25 15 -33 15 -14 0 -32 19 -52 53 -12 21 4
23 21 2z m1090 5 c0 -5 -12 -10 -27 -9 -25 0 -26 1 -8 9 27 12 35 12 35 0z
m45 -15 c-16 -8 -37 -14 -45 -14 -8 0 -1 6 15 14 17 7 37 13 45 13 8 0 2 -6
-15 -13z m-546 -11 c1 -1 1 -7 0 -13 -2 -5 -15 -1 -29 10 l-25 20 25 -7 c14
-3 27 -8 29 -10z m165 -3 c-5 -5 -22 -7 -39 -3 l-30 6 35 6 c39 7 48 4 34 -9z
m471 1 c31 -6 30 -10 -1 -22 -17 -7 -41 -8 -63 -3 l-35 9 34 16 c19 9 37 14
40 10 3 -4 14 -9 25 -10z m55 -31 c0 -5 -12 -12 -26 -15 -15 -4 -24 -9 -22
-12 3 -2 24 3 48 11 52 18 68 11 19 -9 -52 -21 -92 -29 -84 -16 3 5 -2 10 -12
10 -33 0 24 32 70 39 4 0 7 -3 7 -8z m-705 -11 c-3 -5 -12 -10 -18 -10 -7 0
-6 4 3 10 19 12 23 12 15 0z m208 -16 c-3 -8 -12 -13 -20 -10 -8 3 -24 6 -34
6 -11 0 -17 5 -14 10 3 6 22 10 40 10 27 0 33 -3 28 -16z m-728 -54 c19 -14
33 -31 30 -37 -2 -8 4 -13 15 -13 11 0 34 -9 52 -20 l33 -20 -44 0 c-40 0 -49
5 -93 50 -35 36 -48 57 -47 77 0 25 1 26 10 8 6 -11 26 -31 44 -45z m560 40
c3 -5 -1 -10 -9 -10 -8 0 -18 5 -21 10 -3 6 1 10 9 10 8 0 18 -4 21 -10z m755
5 c0 -9 -42 -26 -77 -31 -42 -5 -40 4 3 12 15 3 35 9 43 14 18 10 31 13 31 5z
m44 -10 c-5 -11 -2 -13 12 -8 11 4 15 3 11 -4 -11 -17 -90 -41 -111 -33 -14 5
-16 9 -7 14 6 4 19 5 29 1 9 -3 13 -3 9 2 -6 5 42 39 60 43 1 0 0 -7 -3 -15z
m-614 -25 c0 -5 -17 -10 -37 -10 -28 0 -34 3 -23 10 20 13 60 13 60 0z m-189
-14 c12 7 31 -5 24 -16 -3 -5 -16 -4 -30 2 -13 6 -21 16 -18 21 5 8 8 7 11 -1
2 -7 8 -10 13 -6z m855 -1 c-10 -8 -22 -12 -27 -10 -4 3 -10 1 -14 -5 -3 -5
-16 -10 -28 -9 -15 0 -8 6 23 19 54 23 72 25 46 5z m-556 -5 c0 -5 -5 -10 -11
-10 -5 0 -7 5 -4 10 3 6 8 10 11 10 2 0 4 -4 4 -10z m-33 -6 c-3 -3 -12 -4
-19 -1 -8 3 -5 6 6 6 11 1 17 -2 13 -5z m652 2 c-2 -3 -23 -11 -47 -19 -46
-16 -59 -8 -14 10 27 11 69 17 61 9z m-588 -32 c-18 -8 -43 -13 -55 -11 -14 2
-7 7 24 14 62 15 71 14 31 -3z m3849 -4 c0 -16 -6 -20 -32 -19 -31 1 -32 1 -8
9 18 6 20 8 7 9 -24 1 -11 21 14 21 12 0 19 -7 19 -20z m-3205 -9 c-3 -6 -16
-11 -28 -11 -21 1 -21 1 3 15 27 14 36 13 25 -4z m-955 5 c0 -11 -19 -15 -25
-6 -3 5 1 10 9 10 9 0 16 -2 16 -4z m97 -2 c-3 -3 -12 -4 -19 -1 -8 3 -5 6 6
6 11 1 17 -2 13 -5z m323 -8 c0 -20 -38 -36 -83 -36 -62 0 -53 15 18 28 66 13
65 13 65 8z m580 -16 c0 -9 -64 -31 -85 -29 -11 1 65 38 78 39 4 0 7 -4 7 -10z
m-904 -27 c-10 -10 -19 5 -10 18 6 11 8 11 12 0 2 -7 1 -15 -2 -18z m72 13
c-7 -7 -19 -11 -25 -9 -22 9 -14 23 12 23 21 0 24 -2 13 -14z m314 2 c-20 -20
-14 -24 31 -20 54 5 46 -4 -10 -12 -25 -3 -43 -1 -43 4 0 6 -13 10 -30 10 -16
0 -30 -4 -30 -9 0 -5 -9 -7 -20 -4 -11 3 -20 1 -20 -5 0 -5 -6 -12 -13 -15 -8
-3 -14 1 -14 9 0 7 4 11 8 8 4 -2 9 1 11 6 2 6 29 14 61 17 31 3 57 10 57 14
0 5 5 9 12 9 9 0 9 -3 0 -12z m83 2 c-3 -5 -15 -10 -25 -10 -10 0 -22 5 -25
10 -4 6 7 10 25 10 18 0 29 -4 25 -10z m3535 -10 c0 -14 -9 -21 -35 -26 -19
-3 -35 -10 -35 -15 0 -5 -9 -9 -20 -9 -11 0 -20 -7 -20 -16 0 -9 -7 -14 -17
-12 -10 1 -24 -1 -30 -5 -9 -6 -13 -2 -13 12 0 21 19 24 32 6 4 -6 8 -2 8 8 0
11 8 17 25 17 14 0 25 5 25 10 0 6 10 10 23 11 21 0 21 1 2 9 -17 7 -14 9 15
10 29 1 32 3 15 10 -19 8 -19 9 3 9 15 1 22 -5 22 -19z m-4520 1 c0 -5 -11
-11 -25 -13 -14 -3 -25 -3 -25 -1 0 3 34 19 48 22 1 1 2 -3 2 -8z m2040 -5 c0
-16 -14 -36 -26 -36 -21 0 -17 20 4 21 9 0 12 3 5 5 -6 3 -24 -1 -40 -10 l-28
-15 40 -6 40 -7 0 -81 c0 -73 -6 -96 -26 -97 -12 0 -49 42 -44 51 4 5 1 9 -5
9 -7 0 -9 -7 -6 -16 5 -12 2 -15 -11 -9 -10 4 -30 12 -45 17 -16 6 -25 15 -21
21 4 6 0 8 -11 4 -15 -6 -52 8 -66 24 -3 3 -16 12 -30 19 l-25 13 25 10 c14 5
34 13 45 18 90 41 225 79 225 65z m-996 -21 c-4 -8 -14 -15 -24 -15 -10 0 -33
-2 -51 -5 l-34 -5 32 12 c17 7 35 16 39 21 14 14 44 8 38 -8z m391 5 c-3 -5
-14 -10 -23 -10 -15 0 -15 2 -2 10 20 13 33 13 25 0z m2311 -5 c-37 -14 -56
-13 -56 4 0 4 21 8 48 9 l47 1 -39 -14z m-3733 -2 c-7 -2 -19 -2 -25 0 -7 3
-2 5 12 5 14 0 19 -2 13 -5z m559 -15 c-7 -7 -12 -8 -12 -2 0 14 12 26 19 19
2 -3 -1 -11 -7 -17z m68 7 c17 -20 -9 -21 -36 0 -19 14 -19 14 2 15 12 0 27
-7 34 -15z m484 0 c-4 -9 0 -15 7 -15 11 0 11 -3 -1 -10 -21 -13 -30 -12 -27
3 1 6 -4 11 -10 10 -20 -4 -15 15 5 20 30 8 32 7 26 -8z m2564 -4 c3 -10 0
-12 -12 -8 -9 4 -16 2 -16 -4 0 -6 -5 -7 -11 -3 -6 3 -15 1 -20 -7 -6 -11 -12
-9 -31 6 -18 16 -20 16 -9 2 19 -25 5 -34 -19 -12 -19 18 -28 41 -12 31 5 -3
22 -1 38 4 40 12 87 8 92 -9z m-3621 -7 c-3 -3 -12 -4 -19 -1 -8 3 -5 6 6 6
11 1 17 -2 13 -5z m1391 1 c-8 -8 -68 -25 -68 -19 0 6 41 23 59 23 8 1 12 -1
9 -4z m2092 -15 c22 -22 19 -43 -4 -34 -8 3 -17 1 -21 -5 -4 -8 -12 -8 -25 -1
-16 9 -18 8 -13 -6 5 -14 2 -16 -15 -12 -12 4 -25 2 -28 -3 -10 -17 -39 -8
-62 21 l-22 28 40 7 c21 4 45 3 51 -1 7 -4 9 -3 5 4 -6 9 8 14 62 21 6 0 21
-8 32 -19z m-2826 -4 c-3 -8 -12 -12 -20 -9 -21 8 -17 23 6 23 13 0 18 -5 14
-14z m3609 -19 c-3 -5 -14 -7 -24 -4 -10 3 -20 0 -22 -6 -5 -15 -37 0 -37 18
0 17 23 20 51 5 11 -6 19 -7 18 -3 -3 20 2 27 10 13 6 -8 7 -18 4 -23z m-3688
15 c14 -10 17 -32 5 -32 -5 0 -10 6 -10 14 0 9 -9 12 -27 9 -24 -3 -25 -2 -8
6 25 12 28 12 40 3z m175 3 c0 -11 -42 -25 -53 -18 -8 5 -2 10 18 14 17 4 31
7 33 8 1 0 2 -1 2 -4z m370 -15 c-40 -28 -50 -31 -50 -16 0 14 17 23 50 25 13
1 13 0 0 -9z m287 4 c-3 -3 -12 -4 -19 -1 -8 3 -5 6 6 6 11 1 17 -2 13 -5z
m2737 -6 c-5 -8 -1 -7 10 2 17 13 18 12 15 -5 -3 -11 -11 -20 -19 -21 -29 -2
-60 -16 -60 -28 0 -6 -4 -5 -9 3 -7 11 -16 11 -55 -4 -26 -10 -49 -15 -52 -12
-3 3 -18 1 -33 -5 -14 -6 -37 -12 -51 -13 -90 -8 -150 -18 -150 -26 0 -5 -11
-9 -24 -9 -14 0 -27 -4 -31 -10 -3 -5 -12 -7 -20 -3 -8 3 -15 1 -15 -4 0 -5
-8 -9 -17 -10 -10 -1 -42 -4 -70 -6 -29 -3 -53 -4 -53 -2 0 2 14 10 30 19 21
10 30 11 30 3 0 -7 4 -6 9 2 10 15 28 21 68 23 13 0 20 4 17 9 -8 13 10 11 24
-3 10 -10 14 -8 18 10 4 12 11 22 16 22 5 0 6 -6 2 -12 -5 -9 -2 -9 9 1 14 11
17 11 17 0 0 -8 5 -6 13 6 10 13 21 16 41 11 18 -4 25 -3 21 4 -3 5 -2 10 4
10 5 0 15 -8 20 -17 7 -12 10 -13 11 -4 0 8 6 11 16 7 8 -3 12 -2 9 4 -3 6 2
10 12 10 11 0 23 4 29 10 6 6 19 4 38 -5 25 -13 27 -13 22 1 -5 12 -1 14 15 9
13 -5 19 -3 15 3 -3 5 4 12 17 16 12 3 24 1 26 -5 1 -5 10 -2 18 8 10 13 16
15 19 6 4 -10 11 -10 27 2 26 18 30 19 21 3z m-3324 -28 c0 -26 -3 -30 -27
-29 -27 0 -27 1 -5 9 26 11 29 30 5 31 -15 0 -15 2 2 9 11 5 21 9 23 9 1 1 2
-12 2 -29z m376 15 c-11 -8 -30 -15 -42 -15 -13 0 -26 -4 -29 -10 -3 -5 -13
-10 -22 -10 -27 0 -5 14 50 32 65 20 66 20 43 3z m2099 -1 c25 -16 35 -54 15
-54 -6 0 -21 7 -34 15 -23 15 -23 15 -19 -10 7 -35 -25 -33 -61 4 -32 33 -23
45 27 37 17 -3 26 -3 19 0 -15 7 -6 24 14 24 8 0 26 -7 39 -16z m-2615 2 c0
-2 -3 -11 -6 -20 -5 -12 -9 -13 -24 -4 -10 7 -16 16 -14 20 5 8 44 11 44 4z
m223 -3 c-7 -2 -21 -2 -30 0 -10 3 -4 5 12 5 17 0 24 -2 18 -5z m-143 -25 c0
-16 -3 -19 -11 -11 -6 6 -19 9 -28 5 -14 -5 -14 -4 -2 11 19 24 41 21 41 -5z
m86 -5 c-10 -10 -19 5 -10 18 6 11 8 11 12 0 2 -7 1 -15 -2 -18z m109 17 c-3
-5 -13 -10 -21 -10 -8 0 -14 5 -14 10 0 6 9 10 21 10 11 0 17 -4 14 -10z m472
4 c-3 -3 -12 -4 -19 -1 -8 3 -5 6 6 6 11 1 17 -2 13 -5z m-529 -26 c-2 -6 -10
-14 -16 -16 -7 -2 -10 2 -6 12 7 18 28 22 22 4z m2277 -4 c30 -19 34 -54 6
-54 -25 0 -95 57 -79 63 25 10 49 7 73 -9z m-2191 -9 c-4 -10 0 -15 15 -15 12
0 21 -4 21 -10 0 -5 -9 -10 -20 -10 -25 0 -64 37 -47 44 24 9 36 6 31 -9z
m172 0 c-8 -8 -21 -15 -28 -15 -8 1 -6 6 6 15 26 20 42 19 22 0z m339 5 c-3
-5 -14 -10 -23 -9 -14 0 -13 2 3 9 27 11 27 11 20 0z m1613 -20 c47 -29 37
-73 -10 -48 -14 6 -18 5 -18 -7 0 -9 -12 -18 -30 -21 -16 -4 -30 -10 -30 -15
0 -14 -36 -10 -49 5 -7 8 -28 22 -48 31 l-36 17 39 15 c21 8 54 18 72 23 19 4
36 11 39 14 12 11 38 6 71 -14z m-2191 -12 c-3 -8 -6 -5 -6 6 -1 11 2 17 5 13
3 -3 4 -12 1 -19z m528 12 c-3 -5 -11 -10 -16 -10 -6 0 -7 5 -4 10 3 6 11 10
16 10 6 0 7 -4 4 -10z m-271 -15 c-4 -8 -11 -15 -16 -15 -6 0 -5 6 2 15 7 8
14 15 16 15 2 0 1 -7 -2 -15z m-224 -25 c0 -11 -4 -20 -9 -20 -5 0 -7 9 -4 20
3 11 7 20 9 20 2 0 4 -9 4 -20z m100 0 c0 -5 -12 -10 -27 -9 -25 0 -26 1 -8 9
27 12 35 12 35 0z m156 -15 c14 -13 13 -15 -10 -15 -18 0 -24 4 -20 15 4 8 8
15 11 15 2 0 11 -7 19 -15z m-139 -31 c-3 -3 -16 -4 -29 -2 l-23 5 25 10 c23
10 41 1 27 -13z m1785 0 c10 -7 28 -76 22 -86 -7 -12 75 -10 116 3 111 34 220
48 220 28 0 -5 24 -21 54 -34 47 -21 82 -55 56 -55 -18 0 -10 -32 12 -52 14
-12 31 -17 45 -14 13 4 33 9 46 12 17 4 31 -3 51 -22 23 -24 26 -34 21 -62
-11 -61 -45 -97 -45 -48 0 13 -7 26 -15 30 -8 3 -15 1 -15 -4 0 -6 -12 -10
-26 -10 -22 0 -25 4 -21 21 3 12 1 26 -4 33 -5 6 -16 20 -24 31 l-14 20 3 -20
c2 -11 1 -15 -1 -8 -2 7 -10 11 -16 9 -7 -1 -9 -1 -4 1 4 3 7 12 7 21 -1 37
-30 -22 -30 -60 0 -33 -4 -39 -27 -44 -15 -4 -34 -13 -41 -21 -7 -7 -29 -13
-47 -13 -19 0 -37 -4 -40 -10 -3 -5 -48 -10 -98 -10 -123 0 -138 -5 -131 -40
10 -48 -59 -150 -101 -150 -18 0 -77 78 -92 124 -8 23 -21 48 -28 56 -8 9 -16
54 -21 111 -7 99 -5 110 38 227 l20 54 62 -7 c33 -4 64 -9 68 -11z m-2142 -14
c0 -11 -2 -20 -4 -20 -2 0 -6 9 -9 20 -3 11 -1 20 4 20 5 0 9 -9 9 -20z m534
-1 c-3 -5 2 -9 10 -9 21 0 9 -27 -15 -33 -16 -4 -18 -1 -12 21 6 24 5 26 -10
13 -15 -11 -17 -11 -17 1 0 8 3 17 6 20 8 9 44 -3 38 -13z m396 6 c-7 -8 -20
-15 -28 -15 -13 0 -12 3 4 15 25 19 40 19 24 0z m-643 -10 c0 -8 -4 -15 -9
-15 -4 0 -8 7 -8 15 0 8 4 15 8 15 5 0 9 -7 9 -15z m93 -10 c-14 -16 -50 -21
-50 -6 0 5 12 12 28 14 15 2 29 5 31 6 2 0 -2 -6 -9 -14z m490 -5 c-8 -5 -19
-10 -25 -10 -5 0 -3 5 5 10 8 5 20 10 25 10 6 0 3 -5 -5 -10z m100 5 c0 -6
-87 -45 -98 -45 -9 1 80 49 91 50 4 0 7 -2 7 -5z m-570 -40 c-6 -7 -20 -11
-30 -8 -27 7 -16 21 15 21 19 0 23 -3 15 -13z m590 5 c0 -5 -5 -10 -11 -10 -5
0 -7 5 -4 10 3 6 8 10 11 10 2 0 4 -4 4 -10z m-30 -10 c0 -5 -5 -10 -11 -10
-5 0 -7 5 -4 10 3 6 8 10 11 10 2 0 4 -4 4 -10z m-623 -22 c-3 -8 -6 -5 -6 6
-1 11 2 17 5 13 3 -3 4 -12 1 -19z m247 16 c9 -3 16 -12 16 -20 0 -8 7 -14 16
-14 23 0 8 -17 -21 -22 -17 -4 -25 -1 -25 8 0 8 5 14 10 14 6 0 10 5 10 11 0
8 -11 9 -31 5 -27 -5 -30 -4 -19 9 14 17 21 18 44 9z m-154 -24 c0 -5 -9 -10
-20 -10 -11 0 -20 5 -20 10 0 6 9 10 20 10 11 0 20 -4 20 -10z m640 0 c0 -5
-8 -10 -17 -10 -15 0 -16 2 -3 10 19 12 20 12 20 0z m54 -15 c-4 -8 -12 -15
-19 -15 -7 0 -21 -3 -31 -7 -12 -4 -15 -3 -10 5 4 7 16 12 27 12 10 0 19 5 19
10 0 6 4 10 10 10 5 0 7 -7 4 -15z m-94 1 c0 -2 -7 -7 -16 -10 -8 -3 -12 -2
-9 4 6 10 25 14 25 6z m-578 -28 c-6 -6 -19 -7 -29 -3 -17 7 -17 8 2 15 24 9
41 2 27 -12z m188 -4 c-11 -13 -50 -26 -50 -17 0 9 32 30 46 30 10 0 11 -4 4
-13z m405 -4 c-3 -5 -14 -10 -23 -10 -15 0 -15 2 -2 10 20 13 33 13 25 0z
m-375 -19 c0 -5 -13 -16 -30 -25 -38 -18 -40 -2 -2 18 33 18 32 18 32 7z m425
-1 c-3 -5 -10 -10 -16 -10 -5 0 -9 5 -9 10 0 6 7 10 16 10 8 0 12 -4 9 -10z
m-615 -10 c0 -5 -12 -10 -26 -10 -14 0 -23 4 -19 10 3 6 15 10 26 10 10 0 19
-4 19 -10z m28 -22 c-3 -7 -15 -14 -29 -16 -23 -2 -23 -2 -5 13 24 18 39 20
34 3z m182 -8 c0 -9 -40 -30 -55 -30 -12 0 9 30 23 33 29 8 32 7 32 -3z m-260
-10 c8 -5 11 -10 5 -10 -5 0 -17 5 -25 10 -8 5 -10 10 -5 10 6 0 17 -5 25 -10z
m98 -22 c-4 -12 -48 -19 -48 -8 0 11 8 16 30 17 12 1 20 -3 18 -9z m190 0 c-3
-14 -25 -26 -48 -27 -10 0 -8 6 9 19 27 23 42 26 39 8z m-163 -38 c-3 -5 -15
-10 -26 -10 -10 0 -19 5 -19 10 0 6 12 10 26 10 14 0 23 -4 19 -10z m186 -4
c-14 -17 -51 -28 -51 -15 0 5 10 14 23 19 32 13 41 12 28 -4z m-341 -26 c0 -5
-5 -10 -11 -10 -5 0 -7 5 -4 10 3 6 8 10 11 10 2 0 4 -4 4 -10z m175 0 c4 -6
-5 -10 -20 -10 -15 0 -24 4 -20 10 3 6 12 10 20 10 8 0 17 -4 20 -10z m205 -3
c0 -8 -6 -14 -12 -14 -7 0 -24 -3 -37 -7 -30 -10 -19 11 13 24 30 12 36 12 36
-3z m-269 -30 c-10 -9 -11 -8 -5 6 3 10 9 15 12 12 3 -3 0 -11 -7 -18z m97 -3
c-11 -11 -23 -14 -35 -9 -15 7 -13 9 12 15 17 4 32 8 35 9 2 0 -3 -6 -12 -15z
m192 7 c0 -9 -52 -22 -59 -15 -4 3 37 22 52 23 4 1 7 -3 7 -8z m20 -19 c0 -12
-46 -32 -54 -24 -4 3 4 12 16 19 27 15 38 16 38 5z m-276 -17 c-4 -8 -8 -15
-10 -15 -2 0 -4 7 -4 15 0 8 4 15 10 15 5 0 7 -7 4 -15z m91 -5 c-3 -5 -13
-10 -21 -10 -8 0 -14 5 -14 10 0 6 9 10 21 10 11 0 17 -4 14 -10z m-345 -20
c0 -5 -5 -10 -11 -10 -5 0 -7 5 -4 10 3 6 8 10 11 10 2 0 4 -4 4 -10z m370 -5
c0 -8 5 -15 10 -15 6 0 10 -4 10 -10 0 -17 -25 -11 -42 9 -12 14 -13 21 -5 25
21 8 27 6 27 -9z m-305 -11 c-9 -9 -18 -14 -21 -11 -9 9 6 27 22 27 13 0 13
-2 -1 -16z m-105 -14 c-8 -5 -17 -7 -19 -4 -3 3 1 9 9 14 8 5 17 7 19 4 3 -3
-1 -9 -9 -14z m250 15 c0 -7 -105 -85 -115 -85 -8 0 25 27 80 67 34 24 35 25
35 18z m-81 -9 c-22 -21 -98 -73 -114 -79 -16 -5 -15 -3 4 11 14 9 41 29 60
44 20 15 40 27 45 27 5 1 7 -1 5 -3z m-115 -31 c-28 -22 -40 -18 -13 4 13 11
26 17 28 15 3 -2 -4 -11 -15 -19z m-104 0 c-25 -14 -25 -14 13 -15 23 0 36 -4
32 -10 -3 -6 1 -13 9 -16 9 -3 16 -13 16 -21 0 -12 9 -13 43 -8 30 4 38 3 27
-4 -12 -8 -8 -11 18 -11 18 0 31 -4 28 -9 -9 -15 48 -20 110 -11 32 5 101 23
153 40 52 16 96 28 99 25 11 -11 -41 -64 -71 -70 -56 -13 -260 -81 -306 -104
-25 -11 -51 -21 -58 -21 -8 0 -12 -4 -8 -9 3 -6 -11 -13 -32 -17 -63 -11 -173
-73 -173 -97 0 -8 3 -8 12 1 7 7 20 12 31 12 10 0 16 4 13 9 -3 5 0 9 7 8 36
-1 52 4 38 12 -9 6 -6 9 13 9 32 0 25 -13 -18 -33 -18 -9 -33 -22 -33 -30 0
-19 7 -19 35 1 12 8 22 12 22 7 -1 -10 -30 -49 -30 -39 0 4 -7 0 -16 -9 -27
-26 -9 -27 19 -1 14 13 28 22 31 19 2 -3 21 3 41 12 47 23 55 13 10 -13 -39
-24 -46 -42 -14 -42 19 0 20 -2 8 -17 -11 -13 -7 -13 16 3 17 11 49 30 73 42
l42 22 0 -21 c0 -15 -5 -19 -18 -15 -11 4 -28 -2 -42 -14 -27 -23 -19 -40 10
-22 11 7 29 12 41 12 19 0 19 -1 4 -16 -24 -25 -10 -29 16 -5 13 12 29 21 37
21 8 0 12 6 8 15 -4 11 2 15 20 15 19 0 25 -4 22 -17 -2 -10 -10 -17 -17 -15
-17 3 -54 -24 -57 -43 -3 -18 -4 -18 39 0 44 18 50 19 41 3 -5 -8 -2 -9 9 -5
23 9 21 1 -8 -30 -13 -15 -22 -29 -20 -32 3 -2 12 4 19 15 8 10 18 16 22 11 4
-4 18 0 32 9 29 19 38 13 22 -16 -11 -21 -10 -21 23 4 19 15 38 34 41 42 5 12
8 13 20 2 8 -7 12 -17 9 -22 -3 -4 -8 -4 -12 2 -3 5 -19 -3 -34 -19 -16 -16
-25 -29 -21 -29 3 0 0 -8 -7 -17 -12 -15 -12 -16 1 -8 8 5 22 10 30 12 8 1 20
9 26 17 16 23 26 19 19 -6 -5 -15 5 -8 25 20 31 41 50 53 50 31 0 -5 -4 -7
-10 -4 -5 3 -10 1 -10 -5 0 -6 -7 -18 -15 -26 -8 -9 -15 -20 -15 -25 0 -17 32
-23 44 -8 22 28 57 54 51 38 -3 -9 -2 -26 4 -40 8 -23 9 -22 16 14 11 59 27
56 19 -4 -5 -37 -4 -50 4 -45 6 4 8 14 5 23 -4 11 -3 14 6 9 7 -5 18 -1 26 10
13 18 14 18 29 -1 14 -19 15 -17 16 27 0 54 12 67 37 38 21 -25 34 -26 27 -2
-5 15 -4 15 9 -1 9 -11 13 -25 10 -33 -3 -8 0 -14 7 -14 6 0 8 -6 4 -12 -4 -7
-3 -10 1 -5 5 4 8 31 8 60 l-2 52 13 -60 c8 -33 14 -54 15 -47 0 6 6 12 12 12
6 0 8 -10 5 -22 -3 -13 1 -7 10 12 15 33 16 34 31 15 14 -18 14 -16 9 25 l-7
45 20 -40 c11 -22 20 -34 20 -26 1 10 4 11 15 2 17 -14 29 9 20 37 -5 14 -4
15 5 2 5 -8 7 -26 4 -39 -4 -17 -3 -22 6 -16 8 4 11 23 9 49 -3 37 -1 41 22
43 14 1 19 0 13 -3 -7 -3 -13 -18 -13 -34 0 -27 2 -28 34 -24 55 6 87 22 93
45 4 16 8 18 14 7 8 -11 10 -11 18 0 4 8 12 14 17 15 5 1 8 32 7 70 -1 38 3
67 8 67 6 0 8 4 4 9 -7 12 30 24 53 17 40 -13 232 -23 302 -16 76 8 157 38
194 72 11 10 23 18 27 18 4 0 8 -107 9 -237 0 -157 4 -241 12 -250 6 -8 9 -36
5 -71 -3 -35 -2 -49 3 -37 l9 20 1 -20 1 -20 9 20 c5 11 9 39 9 63 l1 42 328
0 327 0 0 -327 -1 -328 6 325 c4 291 7 325 22 328 23 4 29 -111 26 -465 -2
-228 0 -284 10 -288 8 -3 175 -5 373 -5 280 0 359 -3 359 -12 0 -9 4 -8 11 2
8 11 9 5 5 -25 -3 -22 -6 -182 -6 -355 l0 -315 -87 1 c-49 0 -61 -1 -28 -3 94
-5 125 -12 119 -27 -8 -21 24 -29 99 -27 37 2 67 -1 67 -6 -1 -42 -39 -252
-65 -358 -10 -38 -22 -87 -27 -108 -5 -21 -13 -35 -17 -32 -5 3 -9 -5 -9 -18
1 -32 -38 -168 -77 -268 -43 -112 -148 -319 -218 -431 -67 -107 -194 -276
-216 -287 -20 -11 -281 -15 -281 -4 0 4 -1 178 -1 386 l0 377 -384 0 -383 0
21 -51 c12 -28 27 -53 32 -54 120 -36 192 -62 206 -76 9 -9 29 -39 45 -65 36
-65 127 -213 181 -297 25 -38 43 -70 41 -72 -2 -2 -35 2 -73 11 -125 26 -348
63 -448 73 -81 9 -109 8 -170 -5 -40 -9 -80 -17 -89 -17 -10 -1 -18 -4 -18 -8
0 -4 -12 -10 -26 -13 -15 -4 -33 -14 -41 -22 -9 -8 -17 -13 -19 -12 -2 2 -6
52 -9 112 -4 73 -3 106 4 101 6 -3 9 0 6 7 -3 7 8 35 25 61 39 62 39 73 -1 19
-17 -23 -33 -42 -35 -42 -6 0 56 99 67 105 5 4 9 11 9 17 0 6 -16 -10 -36 -36
-21 -25 -39 -44 -42 -42 -9 9 47 92 93 139 26 26 44 47 39 47 -4 0 -36 -29
-69 -65 -45 -49 -61 -61 -61 -46 0 11 3 19 6 18 3 0 43 37 88 82 46 46 73 76
60 67 -12 -9 -51 -44 -85 -78 -35 -33 -63 -56 -63 -50 0 13 138 155 185 190
23 18 21 17 -9 -2 -21 -14 -59 -44 -83 -67 -45 -43 -72 -47 -37 -6 10 13 -3 0
-30 -27 l-48 -51 16 38 c8 21 25 51 36 67 23 32 161 146 197 163 13 5 23 13
23 17 0 11 49 30 54 21 3 -4 15 -34 27 -67 26 -71 42 -91 38 -49 -1 17 -1 76
-1 133 l2 102 45 0 c33 0 45 4 45 15 0 8 -4 15 -10 15 -5 0 -10 -4 -10 -10 0
-11 -288 -14 -327 -4 -17 5 -20 10 -14 28 5 11 6 27 4 34 -3 6 2 12 10 12 9 0
14 -9 13 -22 -1 -23 0 -23 114 -19 63 2 118 5 123 8 4 2 7 28 7 56 1 29 7 81
15 117 8 36 14 85 13 110 0 25 -2 34 -4 20 -2 -14 -11 -62 -20 -106 l-16 -82
-45 -6 c-25 -3 -49 -3 -54 0 -5 3 -9 34 -9 69 0 80 -11 111 -44 119 -14 3 -26
12 -26 19 0 18 -20 -15 -20 -34 0 -9 9 -19 20 -22 18 -5 20 -14 20 -80 l0 -74
-52 -6 c-29 -2 -54 -4 -55 -3 -1 1 -3 18 -5 39 -2 32 -5 36 -23 32 -16 -5 -16
-3 4 8 17 10 20 16 10 19 -24 9 -1 21 26 14 18 -5 25 -13 25 -32 0 -21 4 -25
23 -22 12 2 22 9 21 16 -1 6 -2 26 -2 42 -1 19 -7 30 -16 30 -8 0 -17 4 -20 8
-5 9 15 86 25 96 3 3 30 -7 60 -22 l54 -27 3 -68 c4 -95 25 -90 48 11 18 75 2
105 -66 129 -34 12 -50 23 -52 38 -3 19 -9 20 -186 19 -100 -1 -181 0 -180 1
2 2 31 24 65 48 68 51 131 128 163 201 12 26 27 49 33 51 7 2 24 6 38 9 32 7
143 80 129 84 -6 2 -32 -10 -58 -26 -51 -33 -122 -56 -122 -41 0 5 6 9 14 9 8
0 18 5 22 12 4 7 3 8 -4 4 -6 -4 -28 -9 -48 -12 -40 -5 -67 -21 -58 -35 3 -5
0 -9 -6 -9 -7 0 -10 7 -6 15 3 8 -2 18 -11 23 -11 6 -12 11 -4 16 6 4 11 2 11
-3 0 -6 7 -11 15 -11 19 0 20 26 0 34 -8 3 -21 -1 -29 -9 -20 -21 -28 -19 -21
5 4 11 2 20 -4 20 -6 0 -11 -5 -11 -11 0 -5 -4 -8 -9 -5 -5 3 -15 -2 -22 -12
-12 -15 -12 -15 1 -5 12 9 20 7 37 -7 12 -9 19 -21 15 -24 -3 -4 2 -4 13 0 14
4 11 -2 -10 -20 -16 -14 -25 -25 -20 -26 6 0 16 5 23 12 9 9 12 9 12 1 0 -7
-5 -15 -11 -19 -8 -4 -7 -9 2 -15 10 -6 4 -18 -22 -51 -36 -47 -101 -108 -134
-126 -19 -11 -19 -11 -1 -12 30 0 120 79 161 143 21 31 42 60 47 63 5 4 -3
-13 -18 -36 -20 -31 -24 -44 -15 -49 18 -11 -69 -100 -153 -155 -66 -44 -208
-106 -241 -106 -28 0 -15 -16 30 -38 39 -19 45 -26 45 -52 0 -28 -3 -30 -34
-30 -49 0 -53 -16 -7 -24 21 -3 63 -17 95 -32 63 -29 72 -53 31 -80 -24 -15
-46 -15 -137 2 -50 10 -29 -12 37 -39 115 -47 148 -35 256 98 31 38 60 65 71
65 11 0 16 -5 13 -10 -4 -6 -1 -18 7 -27 9 -12 10 -15 0 -9 -15 9 -52 -2 -52
-16 0 -6 7 -5 17 3 15 12 16 12 8 -1 -22 -38 -49 -69 -56 -64 -4 2 -11 -1 -15
-7 -5 -8 -3 -9 6 -4 28 17 2 -14 -47 -58 -30 -26 -67 -49 -85 -52 -44 -8 -117
9 -186 44 l-57 29 3 45 4 44 36 -7 c21 -5 63 -11 95 -15 48 -5 58 -4 63 10 4
10 1 21 -7 26 -17 11 -102 28 -151 31 -38 2 -38 2 -38 45 0 42 1 43 33 43 l32
0 -50 30 c-34 20 -63 30 -93 30 l-43 0 2 168 c1 166 -6 212 -33 212 -6 0 -5 6
3 17 12 15 12 16 -6 9 -15 -5 -17 -4 -9 4 9 9 18 8 38 -5 29 -19 33 -30 14
-39 -7 -3 -3 -3 8 -1 18 5 23 0 28 -26 6 -31 7 -32 51 -25 81 11 85 16 85 107
0 69 -3 85 -24 112 -29 39 -60 121 -76 202 -18 96 -30 125 -49 125 -10 0 -24
16 -35 40 -10 23 -22 37 -28 34 -7 -4 -8 -2 -4 4 7 11 -73 141 -87 142 -4 0
-3 -9 3 -19 5 -11 6 -21 1 -23 -5 -2 -4 -14 1 -28 7 -18 11 -21 17 -11 5 8 11
9 15 3 3 -6 1 -12 -5 -14 -7 -2 -1 -25 15 -62 14 -32 26 -62 26 -66 0 -14 -28
-5 -50 15 l-20 18 14 -34 c12 -28 12 -37 1 -52 -10 -14 -14 -15 -19 -5 -3 7
-3 -5 1 -27 3 -22 13 -45 22 -52 11 -8 12 -12 4 -13 -7 0 -13 -10 -12 -22 0
-22 1 -22 9 -3 8 19 9 19 9 -3 1 -22 -34 -46 -51 -36 -9 6 2 37 15 45 16 11
-1 42 -19 35 -14 -5 -15 0 -9 41 4 27 11 50 16 51 5 2 7 8 3 13 -3 5 0 9 5 9
6 0 11 -4 11 -10 0 -5 4 -10 10 -10 5 0 7 7 3 16 -4 12 -16 14 -45 11 -21 -2
-42 -7 -45 -11 -3 -3 -11 2 -18 11 -16 21 -45 10 -45 -17 0 -27 25 -36 55 -20
13 7 29 9 36 5 9 -6 6 -11 -9 -16 -15 -6 -22 -17 -22 -35 0 -26 0 -26 -57 -19
-65 7 -74 12 -53 25 9 6 10 10 3 10 -7 0 -17 -8 -22 -17 -9 -15 -10 -13 -11
14 0 22 8 37 25 51 34 27 32 32 -17 31 -24 -1 -89 -1 -145 0 l-103 1 -2 378
-3 377 -360 0 c-350 0 -360 1 -357 20 7 36 92 219 154 330 92 166 223 353 257
367 29 12 37 8 11 -7z m420 5 c0 -5 -5 -10 -11 -10 -5 0 -7 5 -4 10 3 6 8 10
11 10 2 0 4 -4 4 -10z m607 -442 c-3 -8 -6 -5 -6 6 -1 11 2 17 5 13 3 -3 4
-12 1 -19z m-649 -27 c10 -6 7 -10 -11 -13 -18 -4 -24 -1 -20 9 6 15 13 16 31
4z m187 -21 c3 -6 -1 -7 -9 -4 -18 7 -21 14 -7 14 6 0 13 -4 16 -10z m96 -20
c5 0 9 -8 9 -17 0 -15 -2 -14 -15 3 -8 10 -14 26 -14 34 1 11 3 10 6 -2 2 -10
9 -18 14 -18z m293 -10 c-6 -5 -24 21 -24 34 0 6 6 1 14 -10 8 -10 12 -21 10
-24z m-94 15 c7 -9 8 -15 2 -15 -5 0 -12 7 -16 15 -3 8 -4 15 -2 15 2 0 9 -7
16 -15z m40 -9 c0 -3 -4 -8 -10 -11 -5 -3 -10 -1 -10 4 0 6 5 11 10 11 6 0 10
-2 10 -4z m947 -273 c-2 -16 -4 -5 -4 22 0 28 2 40 4 28 2 -13 2 -35 0 -50z
m-958 -700 c6 -21 11 -86 12 -145 1 -59 6 -105 11 -102 22 14 4 -17 -27 -44
-35 -32 -52 -41 -39 -21 9 16 5 206 -7 258 -7 31 -6 47 2 57 10 12 14 12 26
-3 13 -16 13 -16 4 4 -13 27 -14 33 -1 33 5 0 14 -17 19 -37z m-229 -18 c0 -8
-7 -15 -15 -15 -8 0 -15 7 -15 15 0 8 7 15 15 15 8 0 15 -7 15 -15z m41 -88
c-8 -8 -11 -4 -11 14 0 33 14 47 18 19 2 -12 -1 -27 -7 -33z m-7 -30 c11 -1
21 -8 24 -15 2 -7 -2 -10 -12 -6 -9 4 -16 1 -16 -6 0 -9 -6 -8 -19 4 -22 20
-51 11 -51 -15 0 -27 26 -34 58 -18 15 7 30 15 35 17 4 2 7 -4 7 -12 0 -9 -7
-16 -15 -16 -9 0 -18 -12 -22 -30 -5 -29 -7 -30 -52 -26 -25 2 -53 5 -61 5
-12 1 -11 5 4 16 11 8 16 15 11 15 -5 0 -17 -7 -27 -17 -17 -15 -18 -15 -18 6
0 31 18 61 35 61 8 0 15 6 15 13 0 24 24 39 55 33 17 -4 39 -7 49 -9z m-26
-39 c-7 -19 -38 -22 -38 -4 0 10 9 16 21 16 12 0 19 -5 17 -12z m91 -42 c-4
-37 2 -47 24 -41 15 4 18 3 8 -3 -9 -7 -10 -12 -2 -16 18 -12 13 -39 -14 -70
-27 -32 -30 -42 -15 -51 6 -3 10 -13 10 -21 0 -8 -5 -12 -10 -9 -6 4 -18 1
-27 -6 -14 -12 -15 -9 -8 31 9 54 12 60 31 60 8 0 14 4 14 10 0 5 -7 7 -15 4
-8 -4 -15 -1 -15 5 0 6 11 11 25 11 14 0 25 5 25 11 0 5 -4 7 -10 4 -5 -3 -10
1 -10 9 0 10 -9 16 -23 16 -20 0 -23 4 -19 33 2 21 9 34 18 34 8 0 14 -5 13
-11z m-53 -54 c-12 -11 -17 7 -9 34 l8 29 3 -28 c2 -16 1 -31 -2 -35z m234
-10 c0 -14 -36 -43 -43 -35 -4 3 -7 2 -7 -3 0 -6 5 -15 12 -22 10 -10 7 -17
-11 -35 l-24 -22 16 24 c12 19 14 28 5 38 -8 10 -5 19 12 38 24 25 40 32 40
17z m-265 -12 c3 -5 15 -10 26 -10 10 0 19 -5 19 -11 0 -7 -16 -9 -50 -4 l-50
7 1 -29 c1 -23 2 -24 6 -5 2 12 11 22 18 22 21 0 29 -19 11 -26 -9 -3 -16 -10
-16 -15 0 -6 10 -4 23 3 29 15 59 18 54 4 -2 -6 -10 -11 -18 -11 -9 0 -15 -12
-16 -30 -1 -20 0 -23 4 -7 2 12 9 22 14 22 6 0 9 -10 7 -22 -2 -19 -9 -23 -38
-22 -19 0 -48 3 -65 6 -16 4 -34 7 -40 7 -5 1 -1 8 9 16 15 11 16 15 5 15 -27
0 -49 -38 -49 -85 0 -24 4 -46 9 -49 5 -4 7 4 3 16 -3 14 -2 19 6 14 7 -4 12
-1 12 8 0 8 8 17 18 19 13 4 12 5 -5 6 -12 0 -24 -5 -26 -11 -3 -7 -6 -2 -6
11 -1 21 2 23 30 17 17 -3 40 -6 50 -6 27 0 26 -46 -1 -53 -15 -4 -20 -14 -20
-40 0 -30 -3 -34 -20 -30 -11 3 -21 13 -21 22 -1 14 -2 13 -6 -1 -2 -10 -11
-18 -19 -18 -8 0 -13 -4 -9 -10 3 -5 12 -7 19 -4 8 3 32 0 55 -6 45 -12 57
-43 21 -53 -13 -3 -20 -14 -20 -31 0 -24 -3 -26 -42 -25 -75 2 -78 4 -78 65 0
40 4 56 15 60 12 5 13 10 5 19 -16 20 -9 130 9 130 8 0 19 16 26 35 6 19 21
39 33 45 12 5 22 15 22 20 0 30 70 50 85 25z m320 -26 c62 -47 55 -94 -14 -94
-20 0 -42 -5 -48 -11 -9 -9 -16 -8 -27 4 -14 13 -13 18 5 41 11 14 18 30 15
34 -5 9 20 52 30 52 3 0 21 -12 39 -26z m-115 -28 c0 -3 -4 -8 -10 -11 -5 -3
-10 -1 -10 4 0 6 5 11 10 11 6 0 10 -2 10 -4z m150 -97 c0 -15 -31 -59 -42
-59 -3 0 -3 11 -1 24 3 13 -1 27 -7 31 -9 5 -10 1 -5 -14 8 -25 2 -27 -25 -4
-27 24 -9 42 41 40 29 -1 39 -6 39 -18z m-278 -34 c46 -2 89 -27 68 -40 -5 -3
-10 -1 -10 4 0 6 -7 11 -15 11 -12 0 -15 -17 -16 -92 -1 -51 -1 -97 0 -102 1
-5 -4 -13 -11 -17 -7 -5 -8 -9 -3 -9 6 0 9 -31 8 -75 -1 -41 3 -75 8 -75 5 0
9 6 9 13 0 8 3 7 10 -3 6 -9 5 -17 -3 -22 -18 -11 -57 -10 -57 3 0 6 -8 8 -17
5 -72 -21 -73 -21 -74 20 -2 31 -3 33 -6 12 -5 -32 -23 -38 -23 -8 0 11 -5 20
-11 20 -6 0 -9 -12 -7 -27 2 -20 8 -27 21 -25 12 2 17 -4 17 -20 0 -18 -10
-27 -43 -40 -23 -10 -48 -18 -55 -18 -14 0 -17 76 -3 84 16 10 20 56 5 56 -10
0 -14 13 -14 40 0 22 4 40 9 40 5 0 12 8 15 17 6 15 4 15 -14 -2 -13 -12 -20
-31 -20 -55 0 -23 -5 -40 -14 -43 -21 -8 -26 2 -26 49 0 68 5 74 66 74 51 0
54 -1 54 -26 0 -17 6 -28 20 -31 25 -7 27 -43 2 -43 -10 0 -27 -6 -37 -14 -16
-11 -3 -11 62 3 92 19 123 36 51 29 l-48 -6 0 44 0 44 58 2 57 2 -58 3 -58 4
3 47 3 47 35 -3 c19 -2 43 -5 53 -8 9 -3 17 -1 17 5 0 5 -24 13 -52 18 l-53 8
-3 59 -3 58 28 -7 c15 -5 49 -9 75 -10z m-112 -65 c0 -16 -4 -30 -10 -30 -5 0
-10 14 -10 30 0 17 5 30 10 30 6 0 10 -13 10 -30z m172 -25 c2 -19 0 -35 -4
-35 -4 0 -8 16 -8 35 0 19 2 35 4 35 2 0 6 -16 8 -35z m45 -12 c-3 -10 -5 -4
-5 12 0 17 2 24 5 18 2 -7 2 -21 0 -30z m-7 -108 c-7 -79 -7 -79 -8 -20 -2 54
6 111 13 103 2 -2 0 -39 -5 -83z m-210 20 c0 -14 -4 -25 -10 -25 -5 0 -10 11
-10 25 0 14 5 25 10 25 6 0 10 -11 10 -25z m167 -27 c-3 -8 -6 -5 -6 6 -1 11
2 17 5 13 3 -3 4 -12 1 -19z m-167 -33 c0 -14 -4 -25 -10 -25 -5 0 -10 11 -10
25 0 14 5 25 10 25 6 0 10 -11 10 -25z m177 9 c-3 -3 -12 -4 -19 -1 -8 3 -5 6
6 6 11 1 17 -2 13 -5z m783 -64 c0 -5 -4 -10 -10 -10 -5 0 -10 5 -10 10 0 6 5
10 10 10 6 0 10 -4 10 -10z m-140 -65 c19 -12 10 -32 -12 -30 -50 5 -52 7 -23
20 30 14 30 14 5 15 -15 0 -32 -6 -39 -12 -11 -11 -12 -8 -6 12 4 14 16 33 28
43 21 19 22 19 29 -12 5 -16 13 -33 18 -36z m11 43 c11 -21 11 -22 -4 -9 -10
7 -17 17 -17 22 0 15 9 10 21 -13z m-624 -10 c-3 -8 -6 -5 -6 6 -1 11 2 17 5
13 3 -3 4 -12 1 -19z m453 -49 c0 -11 -7 -19 -17 -19 -10 -1 -29 -7 -43 -16
l-25 -15 25 8 c14 4 39 7 55 8 24 0 31 -5 33 -23 4 -25 -43 -102 -61 -102 -7
0 -7 4 1 12 16 16 15 28 -3 28 -8 0 -15 -7 -15 -15 0 -17 -16 -20 -25 -6 -3 5
-19 12 -35 16 -38 8 -38 22 3 96 34 63 46 72 48 37 1 -18 2 -19 6 -5 3 10 0
24 -6 31 -19 23 1 26 30 5 16 -11 29 -29 29 -40z m-503 29 c-3 -8 -6 -5 -6 6
-1 11 2 17 5 13 3 -3 4 -12 1 -19z m778 2 c3 -5 2 -10 -4 -10 -5 0 -13 5 -16
10 -3 6 -2 10 4 10 5 0 13 -4 16 -10z m-1035 -14 c0 -8 -4 -18 -10 -21 -5 -3
-10 -29 -10 -56 0 -43 -3 -50 -17 -47 -34 6 -29 122 5 131 30 8 32 7 32 -7z
m309 -9 c0 -9 -2 -8 -6 1 -2 6 -10 9 -15 6 -7 -4 -8 -2 -4 5 9 13 26 5 25 -12z
m677 16 c-10 -10 -46 -11 -46 -1 0 4 12 8 27 8 14 0 23 -3 19 -7z m40 -48 c-4
-14 -12 -25 -18 -25 -9 0 -9 3 0 12 7 7 12 21 12 32 0 10 3 17 6 13 4 -3 4
-18 0 -32z m-628 -2 c2 -8 -6 -13 -22 -13 -20 0 -29 -8 -39 -32 -13 -31 -14
-31 -19 -10 -3 12 -3 20 2 17 4 -3 13 9 20 26 9 21 19 29 33 27 11 -2 22 -9
25 -15z m715 -4 c27 -12 37 -47 37 -131 0 -77 -17 -55 -22 28 -4 66 -9 79 -29
95 -27 21 -21 24 14 8z m-673 -120 c0 -84 -3 -110 -12 -106 -20 6 -21 217 -2
217 11 0 14 -22 14 -111z m-123 -21 c-3 -7 -5 -2 -5 12 0 14 2 19 5 13 2 -7 2
-19 0 -25z m306 10 c28 -11 37 -28 15 -28 -7 0 -49 7 -93 15 -44 8 -81 14 -82
15 -2 0 -3 5 -3 11 0 14 120 4 163 -13z m647 -72 c0 -19 -45 -26 -161 -26 -91
0 -122 9 -84 24 8 3 15 0 15 -7 0 -9 2 -9 8 0 7 11 54 17 170 21 38 2 52 -2
52 -12z m-870 -76 c0 -26 -4 -40 -13 -40 -8 0 -14 15 -15 40 -2 30 1 40 13 40
11 0 15 -11 15 -40z m-56 15 c3 -8 1 -15 -4 -15 -6 0 -10 7 -10 15 0 8 2 15 4
15 2 0 6 -7 10 -15z m6 -41 c0 -8 -5 -12 -10 -9 -6 4 -8 11 -5 16 9 14 15 11
15 -7z m431 -429 c34 -17 78 -62 79 -79 0 -5 -8 -2 -17 7 -24 20 -118 57 -146
56 -12 0 -2 -6 23 -13 72 -21 93 -32 125 -66 23 -24 26 -30 10 -24 -20 7 -20
7 0 -16 18 -20 14 -19 -36 9 -31 17 -60 31 -65 31 -5 -1 5 -9 22 -18 40 -22
69 -44 77 -59 4 -6 -18 4 -50 23 -31 19 -64 34 -72 34 -9 0 2 -9 24 -19 22
-10 54 -32 71 -47 16 -16 23 -24 15 -17 -20 14 -111 54 -111 48 0 -3 19 -14
43 -26 60 -31 96 -62 84 -74 -7 -7 -29 -1 -65 17 -30 16 -62 28 -71 27 -9 0
-2 -5 14 -11 29 -10 135 -76 135 -84 0 -2 -7 0 -17 3 -11 4 -14 3 -9 -5 8 -13
-18 -5 -69 22 -16 9 -39 16 -50 15 -16 -1 -15 -2 5 -8 69 -22 143 -72 135 -93
-5 -13 -15 -12 -63 8 -31 13 -64 23 -72 23 -8 0 6 -8 32 -18 47 -19 118 -59
118 -67 0 -2 -17 4 -37 15 -58 29 -94 35 -43 7 25 -14 53 -28 63 -32 9 -3 17
-17 17 -30 l0 -23 -63 30 c-67 31 -178 59 -236 59 -46 0 -304 -44 -463 -79
-71 -15 -128 -26 -128 -25 0 2 63 102 141 223 99 154 147 220 162 224 12 2 68
17 124 31 189 49 296 55 364 21z m150 -18 l-23 -22 17 28 c10 15 20 25 23 22
3 -3 -5 -16 -17 -28z m-161 -459 c36 -16 79 -43 96 -59 l32 -31 52 40 c82 62
175 86 314 80 61 -3 136 -12 166 -21 30 -9 90 -23 133 -32 43 -10 76 -19 74
-22 -3 -2 -54 3 -113 12 -60 9 -138 21 -174 27 -107 16 -247 -4 -330 -47 -47
-24 -31 -29 22 -6 108 48 256 50 440 7 186 -44 192 -46 118 -40 -36 3 -101 12
-145 20 -111 19 -234 27 -270 16 -23 -7 -5 -10 85 -15 73 -4 152 -15 218 -32
57 -15 133 -32 170 -40 121 -24 17 -16 -195 16 -242 36 -311 35 -403 -7 -33
-15 -65 -33 -71 -40 -9 -11 -15 -11 -32 1 -28 20 -97 19 -126 -1 -21 -15 -24
-15 -42 5 -28 30 -65 47 -134 61 -75 16 -144 10 -443 -36 -129 -19 -236 -33
-238 -31 -2 2 44 14 103 26 246 51 373 72 462 78 73 5 89 8 70 15 -35 14 -190
0 -389 -33 -96 -17 -193 -34 -215 -39 -51 -12 -59 -4 -9 9 443 116 601 126
771 51 53 -23 57 -11 5 18 -55 31 -146 52 -222 52 -69 0 -255 -26 -430 -60
-58 -11 -107 -20 -110 -19 -12 1 48 21 133 42 324 84 498 94 627 35z m933
-105 c-7 -2 -19 -2 -25 0 -7 3 -2 5 12 5 14 0 19 -2 13 -5z m-2082 -67 c60 -1
109 3 109 8 0 5 2 7 5 4 11 -11 -8 -38 -25 -38 -11 0 -22 -4 -25 -10 -4 -6 1
-7 12 -4 17 5 17 5 0 -9 -15 -13 -15 -16 -2 -27 10 -9 15 -9 15 -1 0 6 10 11
23 11 21 0 22 -4 24 -96 l3 -96 -43 37 c-80 70 -117 109 -117 122 0 8 -4 12
-9 8 -12 -7 -61 45 -61 64 0 8 -3 12 -6 8 -4 -3 -13 0 -20 8 -17 16 -18 29 -3
19 7 -4 61 -7 120 -8z"/>
<path d="M4365 7610 c3 -5 11 -10 16 -10 6 0 7 5 4 10 -3 6 -11 10 -16 10 -6
0 -7 -4 -4 -10z"/>
<path d="M4286 7601 c-19 -7 -18 -8 4 -14 13 -3 26 -4 29 -2 2 3 -1 5 -8 5 -7
0 -9 5 -6 10 7 11 7 11 -19 1z"/>
<path d="M4428 7603 c7 -3 16 -2 19 1 4 3 -2 6 -13 5 -11 0 -14 -3 -6 -6z"/>
<path d="M4436 7572 c-4 -13 -5 -26 -2 -29 10 -11 18 4 14 29 l-4 23 -8 -23z"/>
<path d="M4258 7573 c7 -3 16 -2 19 1 4 3 -2 6 -13 5 -11 0 -14 -3 -6 -6z"/>
<path d="M4295 7560 c3 -5 8 -10 11 -10 2 0 4 5 4 10 0 6 -5 10 -11 10 -5 0
-7 -4 -4 -10z"/>
<path d="M4265 7540 c3 -5 11 -10 16 -10 6 0 7 5 4 10 -3 6 -11 10 -16 10 -6
0 -7 -4 -4 -10z"/>
<path d="M4370 7510 c-18 -12 -2 -12 25 0 13 6 15 9 5 9 -8 0 -22 -4 -30 -9z"/>
<path d="M4430 7480 c0 -11 4 -20 10 -20 5 0 7 6 4 14 -3 8 2 16 13 19 14 4
14 5 -4 6 -17 1 -23 -5 -23 -19z"/>
<path d="M5940 7616 c0 -2 8 -10 18 -17 15 -13 16 -12 3 4 -13 16 -21 21 -21
13z"/>
<path d="M5690 7325 c-18 -22 -3 -55 26 -55 28 0 48 37 32 58 -14 16 -43 15
-58 -3z m46 -22 c-10 -10 -19 5 -10 18 6 11 8 11 12 0 2 -7 1 -15 -2 -18z"/>
<path d="M5688 7163 c-11 -14 -10 -15 12 -8 l25 8 -25 -21 c-27 -23 -21 -29
11 -12 10 6 19 17 19 24 0 21 -27 27 -42 9z"/>
<path d="M5214 6505 c0 -121 2 -169 3 -107 2 62 2 161 0 220 -1 59 -3 8 -3
-113z"/>
<path d="M5145 6670 c-8 -13 5 -13 25 0 13 8 13 10 -2 10 -9 0 -20 -4 -23 -10z"/>
<path d="M5117 6649 c7 -7 15 -10 18 -7 3 3 -2 9 -12 12 -14 6 -15 5 -6 -5z"/>
<path d="M4728 6643 c7 -3 16 -2 19 1 4 3 -2 6 -13 5 -11 0 -14 -3 -6 -6z"/>
<path d="M5068 6643 c6 -2 18 -2 25 0 6 3 1 5 -13 5 -14 0 -19 -2 -12 -5z"/>
<path d="M4978 6603 c12 -2 32 -2 45 0 12 2 2 4 -23 4 -25 0 -35 -2 -22 -4z"/>
<path d="M3404 6514 c-18 -14 -18 -15 4 -4 12 6 22 13 22 15 0 8 -5 6 -26 -11z"/>
<path d="M3691 6448 c-14 -23 -14 -23 8 -4 22 20 25 26 13 26 -4 0 -13 -10
-21 -22z"/>
<path d="M4150 6438 c0 -27 5 -37 19 -41 32 -8 35 23 6 52 l-25 26 0 -37z"/>
<path d="M4557 6416 c-4 -10 -1 -13 8 -9 8 3 12 9 9 14 -7 12 -11 11 -17 -5z"/>
<path d="M4486 6397 c3 -10 9 -15 12 -12 3 3 0 11 -7 18 -10 9 -11 8 -5 -6z"/>
<path d="M4375 6390 c3 -5 8 -10 11 -10 2 0 4 5 4 10 0 6 -5 10 -11 10 -5 0
-7 -4 -4 -10z"/>
<path d="M4487 6330 c-4 -14 -7 -28 -7 -32 0 -5 163 -7 363 -6 l362 3 -355 5
c-195 3 -341 7 -325 9 17 2 44 2 60 1 17 -1 27 1 23 5 -4 4 -29 7 -57 7 -39
-1 -51 3 -53 16 -3 12 -6 10 -11 -8z"/>
<path d="M4658 6313 c12 -2 32 -2 45 0 12 2 2 4 -23 4 -25 0 -35 -2 -22 -4z"/>
<path d="M4818 6313 c12 -2 32 -2 45 0 12 2 2 4 -23 4 -25 0 -35 -2 -22 -4z"/>
<path d="M5013 6313 c31 -2 83 -2 115 0 31 2 5 3 -58 3 -63 0 -89 -1 -57 -3z"/>
<path d="M5963 6200 c0 -25 2 -35 4 -22 2 12 2 32 0 45 -2 12 -4 2 -4 -23z"/>
<path d="M5290 6152 c0 -5 6 -15 14 -21 12 -10 17 -8 26 8 7 14 7 21 0 21 -5
0 -10 -5 -10 -11 0 -8 -5 -8 -15 1 -8 7 -15 8 -15 2z"/>
<path d="M5605 6141 c-3 -8 -3 -16 0 -19 3 -3 5 0 5 6 0 7 5 12 11 12 5 0 7
-4 4 -10 -3 -5 -1 -10 4 -10 6 0 11 7 11 15 0 8 5 15 11 15 5 0 7 -4 4 -10 -3
-5 0 -10 8 -10 7 0 14 6 14 13 0 18 -65 17 -72 -2z"/>
<path d="M5693 6139 c-1 -12 5 -19 15 -19 15 0 15 2 2 10 -12 8 -11 10 6 10
11 0 25 -5 32 -12 9 -9 12 -9 12 0 0 7 -1 12 -3 12 -1 0 -16 4 -33 9 -25 7
-30 6 -31 -10z"/>
<path d="M4167 6055 c5 -88 15 -159 28 -200 7 -20 6 -20 -9 -1 -32 39 -16 -9
28 -86 51 -89 96 -148 96 -124 0 9 -5 16 -11 16 -6 0 -9 6 -6 14 3 8 -2 25
-12 38 -10 13 -21 31 -24 41 -4 10 -11 15 -17 12 -5 -3 -7 0 -4 9 3 8 -1 28
-10 44 -15 28 -34 121 -55 262 -9 63 -9 62 -4 -25z"/>
<path d="M4788 6123 c-24 -6 -23 -23 0 -23 10 0 19 7 19 15 0 8 -1 14 -1 14
-1 -1 -9 -3 -18 -6z"/>
<path d="M5345 6097 c2 -22 0 -35 -6 -32 -5 4 -9 -1 -9 -9 0 -9 -3 -16 -7 -16
-5 0 -9 -15 -10 -34 -1 -29 3 -36 28 -46 30 -13 30 -13 10 -31 -20 -19 -36
-26 -28 -11 3 4 -8 8 -23 9 -17 1 -30 -4 -34 -13 -4 -10 -14 -13 -33 -8 -27 6
-27 5 -8 -8 11 -8 33 -18 48 -22 30 -7 30 -12 1 -83 -12 -28 -19 -33 -46 -33
-20 0 -28 -4 -22 -9 21 -21 65 1 86 43 11 22 20 42 19 44 0 1 -1 7 -1 14 0 8
3 9 10 2 13 -13 -8 -82 -34 -111 -10 -13 -31 -23 -45 -24 -27 0 -74 -17 -56
-19 6 -1 24 -3 40 -5 17 -2 43 -6 60 -8 24 -4 26 -3 13 7 -15 11 -15 13 2 24
10 6 21 25 25 42 4 17 11 27 17 24 6 -4 8 2 3 16 -5 14 -3 20 3 16 6 -4 8 2 5
14 -3 12 0 20 7 20 7 0 10 6 7 14 -3 7 1 23 8 34 8 10 11 22 8 26 -3 3 -1 6 6
6 7 0 9 5 6 10 -3 6 -1 10 5 10 6 0 9 4 5 9 -3 5 -1 12 4 15 12 8 11 60 -3 69
-8 5 -6 11 7 21 15 12 13 13 -20 12 -34 -1 -38 2 -45 29 -6 26 -7 25 -3 -8z
m16 -59 c-4 -13 -6 -28 -4 -34 2 -6 -3 -14 -12 -17 -19 -8 -19 6 0 43 18 35
28 40 16 8z m21 -35 c-3 -16 -7 -22 -10 -15 -4 13 4 42 11 42 2 0 2 -12 -1
-27z m-59 -107 c26 -20 21 -26 -13 -15 -16 6 -30 15 -30 20 0 13 22 10 43 -5z"/>
<path d="M5536 6113 c-6 -14 -5 -15 5 -6 7 7 10 15 7 18 -3 3 -9 -2 -12 -12z"/>
<path d="M4830 6110 c0 -5 5 -10 10 -10 6 0 10 5 10 10 0 6 -4 10 -10 10 -5 0
-10 -4 -10 -10z"/>
<path d="M4041 6094 c0 -11 3 -14 6 -6 3 7 2 16 -1 19 -3 4 -6 -2 -5 -13z"/>
<path d="M5028 6099 c-19 -11 -25 -49 -8 -49 6 0 10 9 10 20 0 14 7 20 21 20
11 0 17 5 14 10 -8 12 -15 12 -37 -1z"/>
<path d="M5662 6094 c-18 -12 -22 -23 -20 -65 1 -27 6 -49 11 -49 5 0 6 18 2
41 -5 31 -3 45 10 59 10 11 20 18 24 16 3 -2 5 -39 3 -81 l-4 -77 -26 5 -27 6
28 -12 c23 -9 27 -16 27 -53 l0 -43 -52 -3 c-45 -3 -53 -6 -56 -24 -3 -20 -6
-20 -59 -12 -31 5 -58 6 -61 3 -3 -3 5 -5 17 -5 12 0 20 -4 17 -8 -2 -4 -1
-14 5 -22 6 -10 9 -11 9 -2 0 7 15 12 39 12 33 0 40 4 43 23 3 19 10 22 49 25
l46 3 -18 -117 c-10 -64 -23 -122 -30 -128 -9 -8 -10 1 -6 39 16 139 17 152 2
80 -26 -126 -18 -115 -85 -115 -35 0 -60 -4 -60 -10 0 -7 32 -10 87 -8 l88 3
8 49 c4 26 14 55 22 62 8 8 17 35 21 60 5 33 12 48 28 54 21 9 21 9 -1 9 -17
1 -24 -6 -29 -26 -11 -55 -25 -71 -19 -23 3 25 13 51 23 59 16 13 16 13 0 8
-20 -7 -25 9 -5 16 7 3 8 6 1 6 -7 1 -9 12 -6 29 l6 27 7 -25 7 -25 1 28 c1
18 -4 27 -15 27 -10 0 -14 6 -10 18 4 14 9 131 7 170 -1 17 -22 15 -49 -4z"/>
<path d="M4837 6080 c-9 -11 -17 -24 -17 -29 0 -5 -9 -11 -20 -14 -24 -6 -27
-27 -4 -27 9 0 31 16 48 35 18 19 36 35 40 35 4 0 -7 -15 -23 -32 -17 -18 -26
-35 -21 -36 6 -2 7 -8 4 -13 -3 -6 0 -17 8 -26 11 -14 10 -15 -8 -9 -25 8 -54
-2 -54 -18 0 -8 15 -10 43 -8 23 3 39 1 35 -3 -4 -4 -18 -9 -30 -10 -13 -1
-29 -3 -35 -4 -7 0 -13 -8 -13 -17 0 -10 6 -14 15 -10 8 3 15 1 15 -4 0 -6 5
-10 11 -10 6 0 9 7 5 15 -3 8 -1 15 4 15 6 0 10 -4 10 -10 0 -5 10 -10 23 -11
21 0 21 -1 2 -9 -11 -5 -32 -9 -47 -9 -29 -1 -40 -21 -13 -21 14 0 14 -4 1
-35 -17 -41 -15 -43 14 -13 11 12 23 18 27 15 3 -4 1 -7 -5 -7 -7 0 -12 -7
-12 -15 0 -9 -7 -18 -15 -21 -8 -4 -15 -11 -15 -18 0 -7 -19 -17 -43 -23 -53
-15 -97 -48 -97 -74 0 -11 -7 -27 -15 -35 -11 -11 -14 -34 -13 -82 l2 -67 3
63 c3 43 9 65 18 69 8 3 15 14 15 25 0 33 18 55 60 72 77 31 147 13 108 -28
-10 -11 -18 -25 -18 -30 1 -6 9 -1 20 12 11 13 24 20 31 16 8 -5 7 -10 -5 -16
-25 -14 -43 -68 -38 -112 3 -25 1 -36 -6 -32 -5 3 -8 16 -6 29 l5 22 -10 -23
c-6 -12 -22 -27 -36 -34 -14 -6 -25 -17 -25 -25 0 -19 10 -16 37 9 28 26 39
18 24 -19 -8 -21 -10 -22 -7 -5 4 19 2 21 -10 11 -8 -6 -15 -23 -15 -38 -2
-23 -2 -24 -6 -3 -2 12 -8 22 -12 22 -9 0 -35 -70 -28 -76 12 -12 90 51 100
79 8 26 41 -25 39 -62 -1 -26 1 -31 7 -17 7 19 8 19 13 -2 4 -13 2 -20 -6 -19
-6 1 -10 -4 -8 -11 2 -10 -2 -10 -18 -2 -24 13 -40 6 -40 -17 0 -9 -6 -13 -14
-10 -8 3 -19 0 -26 -7 -8 -11 -5 -15 15 -20 28 -7 31 -22 10 -50 -20 -26 -19
-36 4 -36 18 0 36 25 32 43 -1 5 3 6 8 3 5 -3 7 -15 4 -26 -3 -11 -1 -20 5
-20 6 0 13 10 15 23 4 19 4 18 6 -5 l1 -28 -95 -1 c-111 -2 -111 -2 -121 -11
-4 -5 36 -8 89 -8 58 0 97 -4 97 -10 0 -6 -28 -10 -65 -10 -37 0 -65 -4 -65
-10 0 -6 42 -9 108 -9 114 2 282 15 221 17 -53 3 -99 13 -99 23 0 5 69 10 153
11 l152 3 3 93 3 92 44 0 c48 0 63 11 40 30 -10 9 -15 9 -15 1 0 -6 -17 -11
-40 -11 l-40 0 0 -88 c0 -55 -4 -92 -12 -100 -8 -8 -60 -12 -167 -12 -85 0
-152 2 -149 5 3 3 21 6 41 7 40 1 37 -5 58 121 10 58 14 67 33 67 46 0 122 79
114 119 -3 11 -10 4 -22 -21 -22 -45 -41 -62 -88 -77 -38 -13 -41 -17 -54 -86
-4 -22 -8 -43 -9 -47 -2 -5 -3 -17 -4 -29 -1 -15 -7 -20 -23 -17 -12 2 -24 10
-26 18 -3 8 -1 12 3 8 12 -11 35 12 35 34 0 17 -3 18 -15 8 -8 -7 -15 -9 -15
-4 0 5 -4 4 -8 -2 -5 -9 -11 -8 -20 2 -11 13 -9 14 15 10 27 -5 27 -5 8 10
-16 13 -17 15 -3 12 9 -2 17 0 17 5 2 22 -1 27 -18 27 -23 0 -47 25 -31 35 10
6 14 -1 11 -18 -3 -16 52 -2 63 16 8 14 8 20 -4 27 -8 5 -19 8 -24 7 -14 -5
-19 -27 -6 -27 6 0 8 5 5 10 -3 6 -1 10 4 10 14 0 14 -13 -1 -28 -9 -9 -14 -7
-23 5 -15 20 2 43 30 43 15 0 15 1 0 16 -10 10 -25 14 -43 11 -62 -13 -66 -12
-70 8 -4 19 -3 19 10 3 10 -13 17 -15 28 -7 13 9 12 10 -2 5 -12 -3 -18 0 -18
9 0 8 -6 15 -13 15 -9 0 -11 12 -8 43 3 29 6 36 11 22 3 -11 12 -32 20 -48 24
-48 89 -50 123 -5 25 33 15 76 -21 94 -12 6 -19 14 -14 19 4 4 -5 5 -20 1 -18
-4 -28 -2 -28 4 0 6 4 9 9 6 5 -4 11 -1 13 5 2 7 12 7 32 -1 44 -16 41 -6 -5
18 -23 12 -55 23 -72 23 -18 1 -3 6 33 11 44 6 66 6 68 -2 4 -12 22 -4 22 10
0 5 -28 10 -62 12 -51 2 -36 5 72 14 l135 11 -118 1 c-76 1 -116 6 -112 12 3
6 50 10 105 10 107 0 110 2 110 63 0 39 -17 25 -22 -18 -3 -29 -5 -30 -55 -31
-29 0 -53 3 -53 8 0 4 18 8 39 8 22 0 43 5 47 12 5 8 2 9 -10 5 -10 -4 -33 -7
-52 -7 -24 0 -34 -5 -34 -15 0 -10 -9 -15 -27 -14 -16 0 -23 3 -16 5 9 4 9 13
3 30 -7 18 -7 23 2 18 7 -4 8 -3 4 4 -10 17 -26 15 -26 -3 0 -13 -3 -13 -13
-3 -12 10 -12 15 0 26 16 17 16 25 1 40 -7 7 -8 12 -2 12 5 0 10 29 12 64 2
56 -1 68 -20 86 -21 20 -59 40 -76 40 -4 0 -15 -9 -25 -20z m98 -30 c3 -5 2
-10 -4 -10 -5 0 -13 5 -16 10 -3 6 -2 10 4 10 5 0 13 -4 16 -10z m-7 -38 c20
-30 11 -28 -19 4 -13 15 -18 25 -10 22 8 -2 21 -14 29 -26z m-37 1 c13 -16 12
-17 -3 -4 -10 7 -18 15 -18 17 0 8 8 3 21 -13z m-5 -45 c-11 -7 -26 9 -26 30
0 8 6 6 18 -5 11 -12 14 -21 8 -25z m34 -22 c0 -3 -4 -8 -10 -11 -5 -3 -10 -1
-10 4 0 6 5 11 10 11 6 0 10 -2 10 -4z m35 -155 c-3 -6 -16 -11 -28 -11 -21 0
-21 1 3 13 27 15 36 14 25 -2z m-115 -41 c0 -5 -4 -10 -10 -10 -5 0 -10 5 -10
10 0 6 5 10 10 10 6 0 10 -4 10 -10z m166 -162 c7 -23 -12 -64 -34 -73 -24 -9
-72 17 -72 41 0 56 89 84 106 32z m-159 -100 c-3 -8 -6 -5 -6 6 -1 11 2 17 5
13 3 -3 4 -12 1 -19z m3 -168 c-13 -11 -27 -20 -32 -20 -14 0 26 38 41 39 9 1
5 -7 -9 -19z m7 -42 c-3 -8 -6 -5 -6 6 -1 11 2 17 5 13 3 -3 4 -12 1 -19z m76
2 c3 -11 1 -20 -4 -20 -5 0 -9 2 -9 4 0 2 -3 11 -6 20 -3 9 -2 16 4 16 5 0 12
-9 15 -20z m-33 0 c0 -5 -5 -10 -11 -10 -5 0 -7 5 -4 10 3 6 8 10 11 10 2 0 4
-4 4 -10z"/>
<path d="M5302 6083 c2 -10 -7 -22 -22 -30 -26 -13 -7 -19 24 -7 18 7 22 54 6
54 -6 0 -10 -8 -8 -17z"/>
<path d="M5736 6092 c6 -4 14 -14 17 -22 4 -10 6 -8 6 8 1 15 -5 22 -16 22
-11 0 -14 -3 -7 -8z"/>
<path d="M4786 6082 c-3 -5 1 -9 9 -9 8 0 12 4 9 9 -3 4 -7 8 -9 8 -2 0 -6 -4
-9 -8z"/>
<path d="M4470 6067 c0 -11 -9 -21 -20 -24 -11 -3 -20 -9 -20 -14 0 -12 4 -11
35 3 28 12 29 16 15 38 -8 13 -10 12 -10 -3z"/>
<path d="M5432 6065 c-7 -8 -8 -15 -3 -15 7 0 7 -9 0 -27 -7 -18 -7 -24 0 -18
9 9 26 76 19 75 -2 -1 -9 -7 -16 -15z"/>
<path d="M5539 6071 c7 -5 10 -14 7 -20 -4 -6 -3 -11 2 -11 17 0 21 28 6 34
-23 9 -31 7 -15 -3z"/>
<path d="M5732 6055 c0 -16 2 -22 5 -12 2 9 2 23 0 30 -3 6 -5 -1 -5 -18z"/>
<path d="M5963 6040 c0 -25 2 -35 4 -22 2 12 2 32 0 45 -2 12 -4 2 -4 -23z"/>
<path d="M4052 6050 c0 -14 2 -19 5 -12 2 6 2 18 0 25 -3 6 -5 1 -5 -13z"/>
<path d="M4535 6060 c3 -5 11 -10 16 -10 6 0 7 5 4 10 -3 6 -11 10 -16 10 -6
0 -7 -4 -4 -10z"/>
<path d="M5040 6066 c0 -9 30 -14 35 -6 4 6 -3 10 -14 10 -12 0 -21 -2 -21 -4z"/>
<path d="M5132 6038 c-2 -40 -10 -46 -30 -26 -6 6 -14 9 -17 6 -7 -6 43 -41
53 -36 4 2 4 23 1 48 -6 45 -6 45 -7 8z"/>
<path d="M4612 6048 c-7 -7 -12 -17 -12 -23 0 -7 -9 -20 -20 -30 -11 -10 -18
-20 -15 -23 7 -8 45 29 45 44 0 7 7 20 16 28 8 9 12 16 7 16 -5 0 -14 -5 -21
-12z"/>
<path d="M4368 6043 c-16 -4 -34 -33 -20 -33 4 0 21 9 37 20 28 19 22 23 -17
13z"/>
<path d="M5045 6030 c3 -5 11 -10 16 -10 6 0 7 5 4 10 -3 6 -11 10 -16 10 -6
0 -7 -4 -4 -10z"/>
<path d="M5570 6036 c0 -2 7 -7 16 -10 8 -3 12 -2 9 4 -6 10 -25 14 -25 6z"/>
<path d="M4278 6011 c-16 -16 -16 -19 7 -46 13 -17 24 -24 25 -17 0 7 5 10 12
6 6 -4 8 -3 4 4 -3 6 -2 13 4 17 20 12 10 26 -10 15 -14 -7 -26 -8 -38 -1 -16
10 -16 10 0 11 19 0 33 16 21 23 -5 2 -16 -3 -25 -12z"/>
<path d="M4630 6015 c-6 -8 -10 -22 -7 -32 4 -16 6 -15 12 5 5 15 15 22 32 22
13 0 21 4 18 10 -9 15 -41 12 -55 -5z"/>
<path d="M5258 6013 c-16 -8 -28 -22 -28 -31 1 -16 1 -16 11 1 5 9 17 17 24
17 21 0 19 -27 -2 -39 -17 -10 -17 -10 0 -11 20 0 39 40 26 56 -5 6 -6 14 -2
17 9 9 3 7 -29 -10z"/>
<path d="M4492 5980 c0 -19 2 -27 5 -17 2 9 2 25 0 35 -3 9 -5 1 -5 -18z"/>
<path d="M4723 5965 c0 -27 2 -38 4 -22 2 15 2 37 0 50 -2 12 -4 0 -4 -28z"/>
<path d="M4814 6002 c3 -5 0 -13 -6 -15 -8 -3 -6 -6 5 -6 19 -1 23 14 5 25 -6
4 -8 3 -4 -4z"/>
<path d="M4991 6006 c7 -6 151 -86 155 -86 2 0 4 10 4 23 0 15 -3 18 -9 9 -6
-10 -22 -5 -73 22 -54 30 -93 46 -77 32z"/>
<path d="M5430 5985 c-17 -21 -9 -27 13 -10 10 7 14 16 9 19 -5 3 -15 -1 -22
-9z"/>
<path d="M5471 5984 c0 -11 3 -14 6 -6 3 7 2 16 -1 19 -3 4 -6 -2 -5 -13z"/>
<path d="M5522 5988 c-7 -7 -11 -26 -11 -42 2 -28 2 -28 6 -6 7 38 23 52 51
45 15 -4 21 -2 17 5 -8 14 -48 13 -63 -2z"/>
<path d="M4421 5974 c0 -11 3 -14 6 -6 3 7 2 16 -1 19 -3 4 -6 -2 -5 -13z"/>
<path d="M4681 5983 c-1 -7 -9 -13 -18 -13 -13 0 -14 -3 -5 -12 15 -15 37 3
29 24 -4 9 -6 10 -6 1z"/>
<path d="M4991 5966 c-14 -16 -6 -23 63 -57 l49 -24 -61 -3 c-37 -2 -62 -7
-62 -14 0 -7 19 -9 63 -3 34 4 74 7 90 6 22 -1 27 3 27 21 0 21 -1 21 -13 4
-13 -18 -17 -17 -80 20 -39 23 -65 44 -62 52 6 16 0 15 -14 -2z"/>
<path d="M5720 5969 c0 -5 9 -9 20 -9 11 0 20 2 20 4 0 2 -9 6 -20 9 -11 3
-20 1 -20 -4z"/>
<path d="M5588 5948 c-2 -18 -9 -23 -30 -23 -16 1 -28 -3 -28 -7 0 -4 13 -8
30 -8 23 0 31 5 36 25 4 14 4 28 1 31 -3 3 -7 -5 -9 -18z"/>
<path d="M4683 5943 c-18 -7 -16 -20 4 -27 10 -4 14 -4 10 0 -4 4 -2 13 4 21
12 13 5 16 -18 6z"/>
<path d="M5728 5943 c6 -2 12 -18 12 -34 0 -16 4 -29 8 -29 5 0 8 16 8 35 -1
28 -5 35 -21 34 -11 0 -14 -3 -7 -6z"/>
<path d="M4600 5914 c-21 -7 -27 -12 -15 -12 31 0 71 13 60 20 -6 3 -26 0 -45
-8z"/>
<path d="M5396 5905 c-24 -37 -19 -44 9 -11 27 32 29 36 16 36 -5 0 -16 -11
-25 -25z"/>
<path d="M5421 5894 c-24 -40 -25 -44 -12 -44 5 0 14 12 20 28 l11 27 -5 -27
c-3 -15 0 -30 7 -34 6 -4 8 -3 5 3 -4 6 -2 24 3 41 12 45 -4 48 -29 6z"/>
<path d="M4423 5887 c-29 -18 -53 -38 -53 -45 0 -8 12 -4 33 11 17 14 50 34
72 46 26 14 33 21 20 21 -11 -1 -43 -15 -72 -33z"/>
<path d="M4520 5882 c-14 -13 -54 -39 -90 -58 -36 -19 -57 -34 -48 -34 9 0 43
16 75 35 32 19 63 35 70 35 10 0 30 39 21 43 -1 1 -14 -8 -28 -21z"/>
<path d="M4709 5906 c-2 -2 -20 -6 -39 -9 -42 -6 -95 -26 -88 -32 7 -7 141 24
153 36 5 6 3 9 -6 9 -9 0 -18 -2 -20 -4z"/>
<path d="M5466 5895 c-3 -9 -6 -24 -5 -33 0 -9 5 -4 10 12 9 32 6 48 -5 21z"/>
<path d="M4443 5867 c-29 -18 -53 -36 -53 -40 0 -8 51 20 101 55 41 29 7 18
-48 -15z"/>
<path d="M4124 5853 c-20 -30 -33 -158 -18 -173 5 -5 9 21 9 60 0 55 4 74 23
99 24 33 27 41 13 41 -5 0 -17 -12 -27 -27z"/>
<path d="M4726 5861 c-3 -5 -22 -12 -42 -16 -47 -8 -88 -24 -82 -31 3 -3 38 2
77 11 47 11 71 21 71 31 0 16 -16 19 -24 5z"/>
<path d="M5517 5863 c-4 -3 -7 -16 -7 -27 1 -21 1 -21 15 -2 8 11 18 16 22 12
4 -4 1 -11 -7 -16 -8 -5 -11 -12 -7 -16 12 -12 35 16 30 36 -5 19 -33 27 -46
13z"/>
<path d="M5222 5845 c-6 -8 -19 -12 -27 -9 -11 5 -15 0 -14 -17 1 -16 3 -19 6
-7 2 10 10 15 19 11 8 -3 21 0 29 7 12 10 15 9 15 -4 0 -10 -9 -16 -25 -16
-14 0 -25 -4 -25 -10 0 -5 13 -10 29 -10 24 0 29 5 33 30 3 19 0 31 -10 35
-17 6 -15 7 -30 -10z"/>
<path d="M5482 5840 c0 -14 2 -19 5 -12 2 6 2 18 0 25 -3 6 -5 1 -5 -13z"/>
<path d="M5000 5831 c-6 -12 -6 -22 -1 -25 5 -3 11 1 15 9 4 10 20 15 51 15
25 0 45 5 45 10 0 6 -22 10 -50 10 -39 0 -52 -4 -60 -19z"/>
<path d="M4780 5807 c0 -34 -2 -37 -42 -48 -48 -12 -98 -39 -98 -51 0 -5 18 1
39 12 22 10 58 22 80 26 l42 7 -7 41 c-7 53 -14 59 -14 13z"/>
<path d="M5963 5760 c0 -47 2 -66 4 -42 2 23 2 61 0 85 -2 23 -4 4 -4 -43z"/>
<path d="M4480 5809 c-30 -22 -23 -25 15 -5 14 8 23 16 18 19 -5 3 -20 -3 -33
-14z"/>
<path d="M4681 5806 c-19 -7 -37 -18 -39 -24 -5 -15 -2 -15 34 1 16 8 40 19
54 25 21 9 22 11 5 11 -11 0 -35 -6 -54 -13z"/>
<path d="M5440 5795 c0 -5 5 -17 10 -25 5 -8 10 -10 10 -5 0 6 -5 17 -10 25
-5 8 -10 11 -10 5z"/>
<path d="M5609 5789 c-10 -6 -4 -9 19 -9 17 0 32 2 32 4 0 9 -39 13 -51 5z"/>
<path d="M4703 5778 c-18 -6 -33 -15 -33 -20 0 -5 10 -6 23 -2 43 13 67 24 67
29 0 7 -20 5 -57 -7z"/>
<path d="M5160 5776 c0 -2 7 -7 16 -10 8 -3 12 -2 9 4 -6 10 -25 14 -25 6z"/>
<path d="M5731 5742 c2 -30 3 -32 6 -9 2 15 9 25 14 22 5 -4 9 -2 9 3 0 6 -7
12 -15 16 -12 4 -15 -3 -14 -32z"/>
<path d="M4034 5756 c11 -9 24 -16 30 -16 12 0 7 5 -24 19 -24 11 -24 11 -6
-3z"/>
<path d="M5335 5760 c-3 -5 1 -10 10 -10 9 0 13 5 10 10 -3 6 -8 10 -10 10 -2
0 -7 -4 -10 -10z"/>
<path d="M4560 5749 c0 -6 -7 -8 -16 -5 -8 3 -12 2 -9 -4 10 -15 35 -12 35 5
0 8 -2 15 -5 15 -3 0 -5 -5 -5 -11z"/>
<path d="M4600 5758 c0 -4 5 -19 10 -34 l10 -26 -60 4 c-33 2 -55 1 -48 -4 7
-4 37 -8 66 -8 51 0 53 1 46 23 -7 25 -23 55 -24 45z"/>
<path d="M5541 5728 c-4 -13 -11 -42 -15 -65 l-6 -43 34 0 c33 0 35 2 45 50
16 75 15 80 -19 80 -22 0 -33 -6 -39 -22z m59 6 c0 -2 -5 -26 -11 -54 -9 -42
-14 -50 -34 -50 -22 0 -22 2 -12 43 12 49 21 64 42 64 8 0 15 -2 15 -3z"/>
<path d="M5310 5709 c0 -5 5 -7 10 -4 6 3 10 8 10 11 0 2 -4 4 -10 4 -5 0 -10
-5 -10 -11z"/>
<path d="M4484 5676 c14 -11 38 -16 75 -14 l56 1 -60 6 c-33 3 -67 10 -75 14
-8 5 -6 1 4 -7z"/>
<path d="M3990 5674 c0 -9 91 -46 97 -40 3 3 -3 9 -13 12 -10 4 -34 13 -51 20
-18 7 -33 11 -33 8z"/>
<path d="M5195 5653 c-10 -38 -12 -73 -4 -73 8 0 23 90 16 96 -3 3 -8 -8 -12
-23z"/>
<path d="M5246 5665 c-3 -9 -6 -24 -5 -33 0 -9 5 -4 10 12 9 32 6 48 -5 21z"/>
<path d="M5272 5650 c0 -14 2 -19 5 -12 2 6 2 18 0 25 -3 6 -5 1 -5 -13z"/>
<path d="M4592 5625 c-14 -30 -16 -145 -4 -145 5 0 10 30 11 68 1 37 4 75 7
85 8 26 -1 21 -14 -8z"/>
<path d="M5441 5621 c-1 -27 2 -32 11 -23 8 8 8 17 0 34 -10 22 -11 21 -11
-11z"/>
<path d="M4751 5603 c1 -17 3 -21 6 -10 2 9 11 17 18 17 8 0 17 5 20 10 4 6
-5 10 -19 10 -22 0 -26 -4 -25 -27z"/>
<path d="M5261 5609 c-1 -9 10 -41 23 -70 21 -46 25 -50 25 -26 1 15 6 27 12
27 6 0 8 9 4 20 -9 30 2 24 20 -9 9 -19 11 -32 5 -36 -6 -3 -10 -1 -10 5 0 6
-5 8 -11 4 -8 -4 -6 -10 7 -17 13 -7 19 -7 22 1 2 7 24 12 50 12 55 0 52 8 -4
11 -37 2 -43 6 -53 36 -13 34 -25 42 -35 21 -5 -10 -7 -10 -12 0 -3 6 -10 12
-16 12 -6 0 -4 -8 5 -18 18 -20 22 -42 8 -42 -5 0 -12 10 -16 23 -19 55 -23
62 -24 46z"/>
<path d="M4776 5584 c-9 -8 -16 -29 -16 -45 0 -28 1 -28 20 -12 25 21 25 33 3
34 -14 0 -13 2 5 9 12 5 22 14 22 20 0 15 -16 12 -34 -6z"/>
<path d="M5080 5572 c0 -15 -7 -38 -16 -50 -20 -28 -8 -45 12 -18 13 18 20 96
9 96 -3 0 -5 -12 -5 -28z"/>
<path d="M5726 5587 c3 -10 9 -15 12 -12 3 3 0 11 -7 18 -10 9 -11 8 -5 -6z"/>
<path d="M5931 5574 c0 -11 3 -14 6 -6 3 7 2 16 -1 19 -3 4 -6 -2 -5 -13z"/>
<path d="M5961 5574 c0 -11 3 -14 6 -6 3 7 2 16 -1 19 -3 4 -6 -2 -5 -13z"/>
<path d="M4030 5558 c38 -23 140 -61 146 -55 3 2 -10 10 -28 16 -18 7 -57 23
-86 37 -65 30 -78 31 -32 2z"/>
<path d="M4361 5564 c0 -11 3 -14 6 -6 3 7 2 16 -1 19 -3 4 -6 -2 -5 -13z"/>
<path d="M4160 5561 c0 -6 4 -13 10 -16 6 -3 7 1 4 9 -7 18 -14 21 -14 7z"/>
<path d="M5110 5558 c0 -5 11 -8 24 -8 13 0 31 -3 39 -6 8 -3 17 1 20 8 3 10
-7 13 -39 13 -24 0 -44 -3 -44 -7z"/>
<path d="M5460 5554 c0 -49 14 -123 22 -118 4 3 6 9 4 13 -3 4 -1 24 5 44 10
36 11 37 59 37 33 0 50 -4 50 -12 0 -9 3 -9 8 -3 4 6 22 12 40 13 l32 2 0 -60
c0 -47 -3 -60 -15 -60 -8 0 -15 -4 -15 -10 0 -5 9 -10 20 -10 19 0 20 7 20 93
0 62 -3 87 -10 77 -7 -12 -29 -15 -101 -13 -51 1 -98 8 -105 14 -11 9 -14 8
-14 -7z m30 -28 c0 -3 -4 -8 -10 -11 -5 -3 -10 -1 -10 4 0 6 5 11 10 11 6 0
10 -2 10 -4z"/>
<path d="M5711 5557 c9 -7 18 -19 22 -27 5 -13 6 -13 6 1 1 17 -18 39 -33 39
-6 0 -4 -6 5 -13z"/>
<path d="M5751 5563 c-2 -38 10 -43 100 -43 78 0 89 2 89 18 0 9 -4 13 -8 7
-4 -5 -42 -11 -85 -13 -73 -2 -78 -1 -87 20 -5 13 -9 18 -9 11z"/>
<path d="M4386 5525 c3 -11 17 -64 31 -118 13 -54 33 -117 43 -140 l19 -42 0
138 1 137 -38 0 c-30 0 -42 5 -51 23 -9 17 -10 17 -5 2z"/>
<path d="M5700 5530 c0 -5 5 -10 11 -10 5 0 7 5 4 10 -3 6 -8 10 -11 10 -2 0
-4 -4 -4 -10z"/>
<path d="M5955 5530 c-3 -5 -1 -10 4 -10 6 0 11 5 11 10 0 6 -2 10 -4 10 -3 0
-8 -4 -11 -10z"/>
<path d="M5100 5489 c-14 -16 -33 -29 -42 -29 -10 0 -18 -5 -18 -11 0 -25 71
16 91 53 15 27 -3 20 -31 -13z"/>
<path d="M5508 5496 c-6 -14 -7 -33 -3 -43 7 -15 9 -13 15 13 4 17 10 36 14
42 4 7 2 12 -4 12 -6 0 -15 -11 -22 -24z"/>
<path d="M5547 5498 c-18 -10 -23 -38 -7 -38 6 0 10 6 10 14 0 8 10 16 23 18
17 2 18 5 6 10 -8 3 -23 2 -32 -4z"/>
<path d="M5651 5472 c0 -12 -8 -34 -17 -48 -9 -13 -14 -27 -11 -30 10 -10 38
57 34 79 -4 22 -4 22 -6 -1z"/>
<path d="M6083 5473 c32 -2 81 -2 110 0 29 2 3 3 -58 3 -60 0 -84 -1 -52 -3z"/>
<path d="M6478 5473 c45 -2 119 -2 165 0 45 1 8 3 -83 3 -91 0 -128 -2 -82 -3z"/>
<path d="M5570 5455 c-7 -8 -8 -15 -2 -15 5 0 15 7 22 15 7 8 8 15 2 15 -5 0
-15 -7 -22 -15z"/>
<path d="M5609 5441 c-10 -21 -21 -31 -36 -31 -13 0 -23 -4 -23 -10 0 -5 10
-8 23 -6 12 3 24 5 27 5 8 1 33 62 27 67 -3 3 -11 -9 -18 -25z"/>
<path d="M4678 5405 c4 -41 2 -45 -18 -45 -11 0 -18 -4 -15 -10 3 -5 15 -10
26 -10 16 0 19 7 19 55 0 30 -3 55 -8 55 -4 0 -6 -20 -4 -45z"/>
<path d="M4622 5393 c-1 -21 -8 -33 -19 -36 -17 -4 -17 -4 0 -12 25 -10 29 -3
24 41 -3 35 -4 36 -5 7z"/>
<path d="M5521 5411 c-10 -6 -10 -10 -1 -16 13 -8 24 -1 19 14 -3 6 -10 7 -18
2z"/>
<path d="M5460 5401 c0 -5 9 -11 20 -14 13 -3 20 0 20 9 0 8 -9 14 -20 14 -11
0 -20 -4 -20 -9z"/>
<path d="M5195 5390 c3 -5 12 -10 20 -10 8 0 17 5 20 10 4 6 -5 10 -20 10 -15
0 -24 -4 -20 -10z"/>
<path d="M5463 5365 c2 -6 49 -10 112 -10 63 0 110 4 112 10 2 6 -40 10 -112
10 -72 0 -114 -4 -112 -10z"/>
<path d="M4785 5353 c-65 -12 -65 -12 -64 -51 l2 -37 7 35 c5 22 8 27 9 13 2
-33 15 -35 29 -3 8 17 22 30 35 32 12 2 18 6 12 9 -5 3 -19 4 -30 2z"/>
<path d="M6043 5213 c-1 -82 2 -173 6 -203 6 -39 9 2 10 148 0 111 -3 202 -7
202 -4 0 -8 -66 -9 -147z"/>
<path d="M5107 5333 c-4 -3 -7 -16 -7 -27 1 -19 2 -19 11 -3 8 13 23 17 64 17
30 0 55 5 55 10 0 11 -113 14 -123 3z"/>
<path d="M5600 5325 c0 -12 -13 -15 -55 -15 -34 0 -55 -4 -55 -11 0 -8 16 -10
53 -5 96 12 117 18 117 32 0 17 -16 18 -24 2 -5 -10 -7 -10 -12 0 -8 17 -24
15 -24 -3z"/>
<path d="M4660 5319 c-14 -4 -23 -8 -20 -9 21 -7 41 -7 46 2 9 14 2 16 -26 7z"/>
<path d="M5687 5289 c-4 -18 -17 -29 -39 -36 l-33 -11 31 -1 c37 -1 57 19 52
51 -3 23 -4 22 -11 -3z"/>
<path d="M4583 5275 c-3 -9 -3 -19 1 -22 3 -4 6 1 6 10 0 8 8 18 18 20 16 4
16 5 -1 6 -10 0 -20 -6 -24 -14z"/>
<path d="M4676 5275 c4 -10 0 -15 -11 -15 -21 0 -44 -28 -45 -54 0 -11 -3 -17
-6 -13 -6 6 -34 -16 -34 -27 0 -3 7 -6 15 -6 8 0 15 5 15 10 0 6 11 10 24 10
16 0 27 7 31 20 4 11 11 18 16 15 5 -4 9 -1 9 4 0 22 -39 11 -43 -11 -4 -16
-5 -13 -4 7 2 25 6 29 25 27 18 -3 22 2 22 22 0 14 -4 26 -10 26 -5 0 -7 -7
-4 -15z"/>
<path d="M4777 5269 c7 -7 15 -10 18 -7 3 3 -2 9 -12 12 -14 6 -15 5 -6 -5z"/>
<path d="M5389 5248 c-16 -16 -29 -35 -28 -42 0 -7 2 -7 6 2 8 20 18 14 19
-13 2 -22 0 -24 -14 -13 -13 11 -15 10 -9 -5 4 -10 7 -21 7 -23 0 -3 4 -3 9 0
5 4 7 -3 4 -13 -3 -13 -12 -18 -24 -16 -19 4 -54 -40 -72 -87 -12 -33 8 -18
37 28 33 51 44 46 50 -23 4 -44 -2 -65 -15 -57 -5 3 -6 -3 -2 -12 4 -11 3 -15
-5 -10 -6 3 -14 1 -18 -5 -4 -8 -3 -9 4 -5 15 9 15 3 0 -28 -6 -14 -19 -28
-30 -31 -21 -7 -25 -25 -5 -25 21 0 44 22 66 65 11 22 20 32 21 23 0 -9 -5
-20 -10 -23 -6 -4 -8 -16 -4 -27 5 -16 3 -19 -7 -12 -11 6 -11 4 0 -10 11 -13
16 -14 22 -4 6 8 9 9 9 2 0 -18 -27 -37 -35 -24 -3 5 -12 10 -18 9 -9 0 -8 -2
1 -6 6 -2 9 -10 6 -15 -4 -7 -2 -8 4 -4 7 4 12 3 12 -3 0 -20 -65 -44 -132
-49 -63 -4 -68 -6 -77 -33 -8 -22 -7 -29 3 -29 7 0 25 -9 39 -20 17 -14 28
-17 32 -10 9 14 0 23 -35 35 -50 17 -22 37 62 44 83 8 108 18 137 60 23 32 91
188 91 208 0 20 -20 15 -20 -4 -1 -10 -7 -29 -14 -42 -11 -20 -14 -21 -19 -7
-4 10 -3 15 2 12 4 -3 7 12 5 34 -2 33 0 38 14 33 15 -6 15 -4 0 14 -10 11
-18 23 -18 27 0 4 -10 20 -22 36 l-22 30 21 28 c11 15 37 32 58 38 22 6 41 16
43 24 5 13 -10 12 -52 -6 -12 -4 -17 -4 -13 2 15 25 -39 10 -64 -18z m21 -258
c0 -5 -5 -10 -11 -10 -5 0 -7 5 -4 10 3 6 8 10 11 10 2 0 4 -4 4 -10z"/>
<path d="M4605 5250 c-3 -5 -1 -10 4 -10 6 0 11 5 11 10 0 6 -2 10 -4 10 -3 0
-8 -4 -11 -10z"/>
<path d="M4765 5246 c20 -17 20 -17 -3 -13 -15 4 -22 1 -19 -6 7 -22 44 -20
50 2 3 12 1 21 -3 21 -5 0 -17 3 -27 6 -16 6 -16 5 2 -10z"/>
<path d="M5100 5250 c0 -6 30 -10 70 -10 40 0 70 4 70 10 0 6 -30 10 -70 10
-40 0 -70 -4 -70 -10z"/>
<path d="M4570 5226 c0 -2 7 -6 15 -10 8 -3 15 -1 15 4 0 6 -7 10 -15 10 -8 0
-15 -2 -15 -4z"/>
<path d="M5532 5194 c-7 -8 -22 -14 -32 -14 -11 0 -20 -6 -20 -14 0 -11 6 -12
37 -1 37 13 52 29 36 38 -4 3 -14 -1 -21 -9z"/>
<path d="M5687 5168 c5 -44 -7 -69 -39 -81 -7 -2 -11 -7 -8 -10 3 -3 17 0 30
6 21 10 26 21 28 61 2 27 -1 53 -6 58 -6 6 -8 -7 -5 -34z"/>
<path d="M5544 5146 c-3 -8 -19 -17 -36 -20 -17 -3 -28 -9 -25 -12 3 -4 22 -3
42 0 26 5 35 12 35 26 0 23 -8 26 -16 6z"/>
<path d="M4545 5099 c22 -10 51 -18 65 -18 15 0 1 8 -35 19 -74 24 -82 24 -30
-1z"/>
<path d="M4960 5100 c0 -5 5 -10 11 -10 5 0 7 5 4 10 -3 6 -8 10 -11 10 -2 0
-4 -4 -4 -10z"/>
<path d="M5545 5091 c-3 -6 -15 -11 -26 -11 -10 0 -19 -4 -19 -10 0 -16 50
-11 57 5 7 19 -2 31 -12 16z"/>
<path d="M4686 5029 c-26 -28 -45 -53 -41 -57 3 -4 29 17 56 45 49 51 51 52
74 37 l25 -16 -30 -42 c-16 -24 -39 -50 -52 -58 -13 -9 -20 -19 -15 -24 4 -4
23 8 43 27 19 19 37 33 40 31 2 -1 12 2 22 8 16 11 16 11 0 6 -19 -6 -25 9 -8
19 6 4 8 11 5 16 -4 5 -2 9 2 9 12 0 14 38 2 45 -5 3 -6 -1 -3 -9 8 -20 -5
-20 -30 -1 -29 22 -36 19 -90 -36z"/>
<path d="M5654 5035 c3 -16 6 -127 8 -245 l3 -215 -42 2 c-24 2 -43 -2 -43 -7
0 -6 22 -10 50 -10 l50 0 -7 238 c-3 130 -10 244 -15 252 -6 10 -7 6 -4 -15z"/>
<path d="M5613 4955 l2 -100 -57 -3 c-32 -2 -58 -8 -58 -14 0 -5 7 -7 16 -4 9
3 38 6 65 6 l49 0 -1 78 c-1 42 -5 91 -10 107 -5 20 -7 -3 -6 -70z"/>
<path d="M4280 5030 c0 -5 5 -10 11 -10 5 0 7 5 4 10 -3 6 -8 10 -11 10 -2 0
-4 -4 -4 -10z"/>
<path d="M5518 5020 c-1 -5 -1 -36 0 -69 3 -49 7 -60 24 -64 11 -3 26 -3 34 0
15 6 17 53 4 93 -7 19 -9 14 -7 -25 1 -40 -2 -51 -16 -53 -11 -2 -17 3 -17 15
0 10 -3 35 -6 56 -6 35 -5 37 20 37 14 0 26 5 26 10 0 13 -57 13 -62 0z"/>
<path d="M5176 4974 c-9 -24 -4 -25 23 -3 22 18 22 19 3 19 -11 0 -23 -7 -26
-16z"/>
<path d="M5237 4974 c4 -11 8 -13 11 -6 5 16 22 5 22 -14 0 -8 -7 -14 -15 -14
-10 0 -15 -10 -15 -29 0 -20 -6 -31 -17 -34 -10 -3 -1 -5 20 -6 33 -1 37 2 37
24 0 14 -4 25 -10 25 -5 0 -7 -6 -4 -14 3 -8 1 -17 -5 -21 -7 -4 -11 4 -11 19
0 17 6 26 16 26 26 0 14 54 -13 58 -18 3 -22 0 -16 -14z"/>
<path d="M4821 4958 c-14 -23 -14 -23 8 -4 22 20 25 26 13 26 -4 0 -13 -10
-21 -22z"/>
<path d="M4950 4961 c0 -17 33 -43 78 -62 50 -22 62 -23 62 -9 0 6 -7 10 -17
10 -24 0 -104 50 -98 61 4 5 -1 9 -9 9 -9 0 -16 -4 -16 -9z"/>
<path d="M5207 4953 c-4 -3 -7 -11 -7 -17 0 -6 5 -5 12 2 6 6 9 14 7 17 -3 3
-9 2 -12 -2z"/>
<path d="M4925 4910 c-8 -16 -15 -36 -15 -44 0 -8 -6 -16 -12 -19 -20 -6 9
-35 64 -63 56 -28 68 -30 68 -8 0 14 -3 14 -15 4 -8 -7 -15 -8 -15 -3 0 5 -11
16 -25 23 -14 7 -23 15 -21 17 2 3 13 0 24 -6 13 -7 22 -7 30 1 8 8 2 15 -21
27 -36 18 -45 42 -24 63 13 13 13 16 -4 26 -16 10 -21 8 -34 -18z"/>
<path d="M4330 4909 c-1 -8 -2 -63 -3 -123 l-2 -108 51 5 c55 6 216 57 274 88
57 30 9 22 -56 -10 -65 -31 -173 -61 -222 -61 l-32 0 2 105 c1 58 -1 108 -5
112 -4 3 -7 0 -7 -8z"/>
<path d="M4840 4905 c-7 -9 -10 -18 -7 -21 3 -3 10 4 17 15 13 25 8 27 -10 6z"/>
<path d="M5123 4895 c-9 -24 1 -27 15 -5 8 13 8 20 2 20 -6 0 -13 -7 -17 -15z"/>
<path d="M4441 4882 l-53 -15 6 -41 c4 -22 12 -43 18 -47 13 -8 127 26 142 42
8 9 6 10 -9 5 -40 -15 -110 -36 -122 -36 -6 0 -13 15 -15 33 -3 31 -2 32 62
54 74 24 52 29 -29 5z"/>
<path d="M4966 4883 c-8 -19 17 -43 45 -43 28 0 30 27 4 44 -31 20 -41 20 -49
-1z m44 -13 c13 -8 13 -10 -2 -10 -9 0 -20 5 -23 10 -8 13 5 13 25 0z"/>
<path d="M5165 4880 l-30 -8 33 -1 c17 0 32 4 32 9 0 6 -1 9 -2 9 -2 -1 -16
-5 -33 -9z"/>
<path d="M6033 4840 c0 -25 2 -35 4 -22 2 12 2 32 0 45 -2 12 -4 2 -4 -23z"/>
<path d="M6723 4840 c0 -25 2 -35 4 -22 2 12 2 32 0 45 -2 12 -4 2 -4 -23z"/>
<path d="M5050 4848 c-31 -46 -31 -48 -17 -48 12 0 20 12 45 63 9 17 -15 5
-28 -15z"/>
<path d="M5626 4733 l4 -103 -59 0 c-44 0 -60 -4 -65 -16 -4 -10 -13 -13 -26
-9 -12 4 -20 2 -20 -5 0 -6 5 -8 10 -5 6 4 10 -7 10 -24 0 -17 5 -31 12 -31 6
0 8 3 5 6 -3 4 -2 15 4 25 12 23 49 25 49 4 0 -8 5 -15 10 -15 6 0 10 9 10 19
0 14 -8 21 -27 24 -16 2 0 5 35 6 l62 1 -1 48 c-1 26 -5 76 -9 112 -7 54 -8
48 -4 -37z"/>
<path d="M5543 4803 c-9 -3 -13 -28 -13 -74 l0 -69 35 0 34 0 -4 65 c-6 85
-12 95 -52 78z m37 -73 c0 -47 -3 -60 -15 -60 -8 0 -15 6 -16 13 -4 45 -5 93
-2 100 2 4 11 7 19 7 11 0 14 -14 14 -60z"/>
<path d="M6278 4783 c23 -2 61 -2 85 0 23 2 4 4 -43 4 -47 0 -66 -2 -42 -4z"/>
<path d="M6018 4753 c12 -2 32 -2 45 0 12 2 2 4 -23 4 -25 0 -35 -2 -22 -4z"/>
<path d="M6791 4491 c0 -123 2 -221 6 -217 4 3 6 94 5 201 -1 193 -1 194 21
198 l22 4 -22 2 c-12 0 -24 9 -26 19 -3 9 -5 -84 -6 -207z"/>
<path d="M6872 4684 c-7 -8 -8 -14 -3 -14 10 0 25 19 20 25 -2 1 -10 -3 -17
-11z"/>
<path d="M6771 4674 c0 -11 3 -14 6 -6 3 7 2 16 -1 19 -3 4 -6 -2 -5 -13z"/>
<path d="M5453 4537 c-17 -61 -16 -67 3 -67 8 0 12 -5 9 -10 -4 -6 -11 -8 -16
-5 -15 10 -10 -7 15 -50 34 -60 68 -60 120 -1 28 32 50 47 69 48 26 2 27 4 25
53 -1 50 -1 50 -5 8 -4 -38 -7 -43 -29 -43 -23 0 -36 -10 -67 -54 -8 -11 -29
-20 -55 -22 l-41 -3 6 32 c3 18 9 34 12 37 3 3 6 12 6 20 0 9 13 17 30 20 30
6 30 6 5 13 -17 5 -33 1 -51 -13 l-26 -19 0 23 c0 16 5 23 16 21 9 -1 11 0 4
2 -6 2 -13 16 -15 31 -2 22 -5 19 -15 -21z m24 -119 c-3 -8 -6 -5 -6 6 -1 11
2 17 5 13 3 -3 4 -12 1 -19z"/>
<path d="M5524 4571 c4 -5 0 -12 -6 -14 -8 -3 -6 -6 5 -6 9 -1 17 6 17 14 0 8
-5 15 -11 15 -5 0 -8 -4 -5 -9z"/>
<path d="M6774 4400 c0 -91 2 -128 3 -82 2 45 2 119 0 165 -1 45 -3 8 -3 -83z"/>
<path d="M4972 4475 c0 -16 2 -22 5 -12 2 9 2 23 0 30 -3 6 -5 -1 -5 -18z"/>
<path d="M6826 4485 c-3 -9 -6 -24 -5 -33 0 -9 5 -4 10 12 9 32 6 48 -5 21z"/>
<path d="M5551 4473 c3 -21 -3 -33 -17 -33 -9 0 -12 5 -8 12 4 7 3 8 -4 4 -11
-7 -17 -36 -8 -36 3 0 16 4 30 10 25 9 38 50 16 50 -5 0 -9 -3 -9 -7z"/>
<path d="M6831 4419 c-7 -22 -11 -43 -8 -45 2 -2 9 14 16 37 7 22 11 43 8 45
-2 2 -9 -14 -16 -37z"/>
<path d="M5670 4375 c0 -37 -4 -65 -10 -65 -5 0 -10 -4 -10 -10 0 -5 7 -10 15
-10 12 0 15 15 15 75 0 41 -2 75 -5 75 -3 0 -5 -29 -5 -65z"/>
<path d="M5617 4376 c-7 -47 -4 -66 9 -54 3 3 4 28 2 54 l-3 49 -8 -49z"/>
<path d="M5283 4352 c-47 -5 -41 -22 7 -22 22 0 40 4 40 9 0 14 -11 17 -47 13z"/>
<path d="M6811 4304 c0 -11 3 -14 6 -6 3 7 2 16 -1 19 -3 4 -6 -2 -5 -13z"/>
<path d="M5260 4300 c-11 -7 -4 -10 28 -10 23 0 42 5 42 10 0 13 -50 13 -70 0z"/>
<path d="M5593 4268 c16 -10 87 -10 87 0 0 4 -22 7 -49 7 -27 0 -44 -3 -38 -7z"/>
<path d="M5114 4064 c-18 -14 -18 -15 4 -4 12 6 22 13 22 15 0 8 -5 6 -26 -11z"/>
<path d="M5104 4015 c-10 -8 -14 -15 -8 -15 6 0 17 7 24 15 16 19 9 19 -16 0z"/>
<path d="M5010 3989 l-35 -30 38 26 c33 24 43 35 34 35 -1 0 -18 -14 -37 -31z"/>
<path d="M5105 3974 c-48 -32 -73 -56 -30 -29 17 10 42 25 58 33 15 7 27 15
27 18 0 10 -18 2 -55 -22z"/>
<path d="M5119 3947 c-31 -17 -70 -43 -85 -56 -23 -18 -23 -20 -4 -7 14 9 53
32 88 52 34 20 62 38 62 40 0 6 -2 6 -61 -29z"/>
<path d="M5170 3925 c-14 -8 -20 -14 -14 -15 5 0 19 7 30 15 24 18 16 19 -16
0z"/>
<path d="M5069 3872 c-47 -31 -110 -84 -105 -89 3 -3 17 7 33 22 15 15 45 38
66 51 20 13 37 26 37 29 0 7 -1 6 -31 -13z"/>
<path d="M5150 3875 c-14 -8 -20 -14 -15 -14 6 0 21 6 35 14 14 8 21 14 15 14
-5 0 -21 -6 -35 -14z"/>
<path d="M5094 3844 c-18 -14 -18 -15 4 -4 12 6 22 13 22 15 0 8 -5 6 -26 -11z"/>
<path d="M4995 3773 l-50 -46 50 38 c28 22 52 40 54 42 2 2 2 5 0 7 -2 2 -26
-16 -54 -41z"/>
<path d="M4947 3456 c-4 -10 -1 -13 8 -9 8 3 12 9 9 14 -7 12 -11 11 -17 -5z"/>
<path d="M4260 5467 c0 -9 5 -17 11 -17 5 0 8 -3 6 -7 -3 -5 -1 -17 3 -28 6
-18 7 -17 12 5 3 16 -2 32 -14 44 -16 17 -18 18 -18 3z"/>
<path d="M3920 5009 c0 -19 5 -41 10 -49 6 -10 8 -1 4 30 -7 55 -14 65 -14 19z"/>
<path d="M4000 4995 c-11 -13 -10 -14 4 -9 9 3 16 10 16 15 0 13 -6 11 -20 -6z"/>
<path d="M3923 4860 c0 -25 2 -35 4 -22 2 12 2 32 0 45 -2 12 -4 2 -4 -23z"/>
<path d="M3940 4875 c0 -8 5 -15 10 -15 6 0 10 7 10 15 0 8 -4 15 -10 15 -5 0
-10 -7 -10 -15z"/>
<path d="M3974 4875 c-4 -9 -2 -21 4 -27 15 -15 44 -1 40 19 -4 23 -36 29 -44
8z m36 -4 c0 -12 -20 -25 -27 -18 -7 7 6 27 18 27 5 0 9 -4 9 -9z"/>
<path d="M4360 5154 c0 -9 5 -14 12 -12 18 6 21 28 4 28 -9 0 -16 -7 -16 -16z"/>
<path d="M4382 5131 c-23 -14 -10 -46 18 -46 20 0 25 5 25 25 0 26 -20 36 -43
21z m33 -10 c7 -12 -12 -24 -25 -16 -11 7 -4 25 10 25 5 0 11 -4 15 -9z"/>
<path d="M3916 4728 c-3 -17 -2 -36 3 -41 5 -5 10 8 13 32 4 48 -7 55 -16 9z"/>
<path d="M3967 4724 c-13 -14 -7 -26 7 -15 9 8 16 8 20 2 4 -5 -2 -15 -11 -21
-17 -10 -16 -11 2 -8 12 2 20 11 20 23 0 20 -25 32 -38 19z"/>
<path d="M3966 4584 c-8 -21 1 -34 25 -34 14 0 19 7 19 25 0 29 -34 36 -44 9z
m34 -9 c0 -8 -4 -15 -9 -15 -13 0 -22 16 -14 24 11 11 23 6 23 -9z"/>
<path d="M4860 4620 c-9 -6 -10 -10 -3 -10 6 0 15 5 18 10 8 12 4 12 -15 0z"/>
<path d="M4672 4558 c-19 -19 -14 -37 14 -44 31 -8 47 11 33 38 -11 21 -30 23
-47 6z m36 -20 c-6 -18 -28 -21 -28 -4 0 9 7 16 16 16 9 0 14 -5 12 -12z"/>
<path d="M4610 4526 c0 -3 9 -10 20 -16 11 -6 20 -8 20 -6 0 3 -9 10 -20 16
-11 6 -20 8 -20 6z"/>
<path d="M3924 4616 c-3 -8 -4 -31 -2 -52 3 -36 4 -35 8 14 5 53 4 63 -6 38z"/>
<path d="M4528 3833 c6 -2 18 -2 25 0 6 3 1 5 -13 5 -14 0 -19 -2 -12 -5z"/>
<path d="M4478 3823 c7 -3 16 -2 19 1 4 3 -2 6 -13 5 -11 0 -14 -3 -6 -6z"/>
<path d="M4388 3803 c7 -3 16 -2 19 1 4 3 -2 6 -13 5 -11 0 -14 -3 -6 -6z"/>
<path d="M4528 3803 c12 -2 30 -2 40 0 9 3 -1 5 -23 4 -22 0 -30 -2 -17 -4z"/>
<path d="M4633 3803 c9 -2 25 -2 35 0 9 3 1 5 -18 5 -19 0 -27 -2 -17 -5z"/>
<path d="M4330 3790 c-18 -12 -2 -12 25 0 13 6 15 9 5 9 -8 0 -22 -4 -30 -9z"/>
<path d="M4425 3790 c-25 -11 1 -11 35 0 20 6 21 8 5 8 -11 0 -29 -3 -40 -8z"/>
<path d="M4690 3796 c0 -2 9 -6 20 -9 11 -3 18 -1 14 4 -5 9 -34 13 -34 5z"/>
<path d="M4378 3773 c7 -3 16 -2 19 1 4 3 -2 6 -13 5 -11 0 -14 -3 -6 -6z"/>
<path d="M4508 3773 c12 -2 30 -2 40 0 9 3 -1 5 -23 4 -22 0 -30 -2 -17 -4z"/>
<path d="M4760 3760 c14 -11 30 -20 35 -20 6 0 -1 9 -15 20 -14 11 -29 20 -35
20 -5 0 1 -9 15 -20z"/>
<path d="M4328 3763 c6 -2 18 -2 25 0 6 3 1 5 -13 5 -14 0 -19 -2 -12 -5z"/>
<path d="M4448 3763 c6 -2 18 -2 25 0 6 3 1 5 -13 5 -14 0 -19 -2 -12 -5z"/>
<path d="M4255 3750 c-25 -11 1 -11 35 0 20 6 21 8 5 8 -11 0 -29 -3 -40 -8z"/>
<path d="M4365 3750 c-25 -11 1 -11 35 0 20 6 21 8 5 8 -11 0 -29 -3 -40 -8z"/>
<path d="M4498 3743 c12 -2 32 -2 45 0 12 2 2 4 -23 4 -25 0 -35 -2 -22 -4z"/>
<path d="M4623 3743 c9 -2 25 -2 35 0 9 3 1 5 -18 5 -19 0 -27 -2 -17 -5z"/>
<path d="M4308 3733 c6 -2 18 -2 25 0 6 3 1 5 -13 5 -14 0 -19 -2 -12 -5z"/>
<path d="M4438 3733 c6 -2 18 -2 25 0 6 3 1 5 -13 5 -14 0 -19 -2 -12 -5z"/>
<path d="M4388 3723 c7 -3 16 -2 19 1 4 3 -2 6 -13 5 -11 0 -14 -3 -6 -6z"/>
<path d="M4300 3710 c-20 -6 -21 -8 -5 -8 11 0 31 4 45 8 20 6 21 8 5 8 -11 0
-31 -4 -45 -8z"/>
<path d="M4463 3713 c9 -2 25 -2 35 0 9 3 1 5 -18 5 -19 0 -27 -2 -17 -5z"/>
<path d="M4638 3713 c6 -2 18 -2 25 0 6 3 1 5 -13 5 -14 0 -19 -2 -12 -5z"/>
<path d="M4408 3703 c6 -2 18 -2 25 0 6 3 1 5 -13 5 -14 0 -19 -2 -12 -5z"/>
<path d="M4248 3693 c7 -3 16 -2 19 1 4 3 -2 6 -13 5 -11 0 -14 -3 -6 -6z"/>
<path d="M4320 3690 c-20 -6 -21 -8 -5 -8 11 0 31 4 45 8 20 6 21 8 5 8 -11 0
-31 -4 -45 -8z"/>
<path d="M4543 3693 c9 -2 25 -2 35 0 9 3 1 5 -18 5 -19 0 -27 -2 -17 -5z"/>
<path d="M4453 3683 c9 -2 25 -2 35 0 9 3 1 5 -18 5 -19 0 -27 -2 -17 -5z"/>
<path d="M4638 3683 c7 -3 16 -2 19 1 4 3 -2 6 -13 5 -11 0 -14 -3 -6 -6z"/>
<path d="M4258 3673 c6 -2 18 -2 25 0 6 3 1 5 -13 5 -14 0 -19 -2 -12 -5z"/>
<path d="M4393 3673 c9 -2 23 -2 30 0 6 3 -1 5 -18 5 -16 0 -22 -2 -12 -5z"/>
<path d="M4705 3663 c22 -9 53 -25 68 -36 16 -10 30 -17 33 -14 10 10 -103 68
-130 66 -6 0 7 -7 29 -16z"/>
<path d="M4208 3663 c6 -2 18 -2 25 0 6 3 1 5 -13 5 -14 0 -19 -2 -12 -5z"/>
<path d="M4300 3660 l-25 -8 25 0 c14 0 36 4 50 8 l25 8 -25 0 c-14 0 -36 -4
-50 -8z"/>
<path d="M4480 3660 c-41 -6 -42 -7 -10 -8 19 0 55 3 80 7 40 8 41 8 10 8 -19
0 -55 -3 -80 -7z"/>
<path d="M4613 3653 c9 -2 25 -2 35 0 9 3 1 5 -18 5 -19 0 -27 -2 -17 -5z"/>
<path d="M4220 3640 c-20 -6 -21 -8 -5 -8 11 0 29 3 40 8 25 11 -1 11 -35 0z"/>
<path d="M4388 3643 c6 -2 18 -2 25 0 6 3 1 5 -13 5 -14 0 -19 -2 -12 -5z"/>
<path d="M4333 3633 c9 -2 23 -2 30 0 6 3 -1 5 -18 5 -16 0 -22 -2 -12 -5z"/>
<path d="M4250 3620 c-20 -6 -21 -8 -5 -8 11 0 31 4 45 8 20 6 21 8 5 8 -11 0
-31 -4 -45 -8z"/>
<path d="M4443 3623 c9 -2 23 -2 30 0 6 3 -1 5 -18 5 -16 0 -22 -2 -12 -5z"/>
<path d="M4650 3620 c34 -11 60 -11 35 0 -11 5 -29 8 -40 8 -16 0 -15 -2 5 -8z"/>
<path d="M4383 3613 c9 -2 23 -2 30 0 6 3 -1 5 -18 5 -16 0 -22 -2 -12 -5z"/>
<path d="M4170 3600 c-20 -6 -21 -8 -5 -8 11 0 29 3 40 8 25 11 -1 11 -35 0z"/>
<path d="M4300 3600 c-20 -6 -21 -8 -5 -8 11 0 31 4 45 8 20 6 21 8 5 8 -11 0
-31 -4 -45 -8z"/>
<path d="M4553 3603 c9 -2 23 -2 30 0 6 3 -1 5 -18 5 -16 0 -22 -2 -12 -5z"/>
<path d="M4749 3585 c24 -14 46 -23 48 -21 5 5 -71 46 -84 46 -4 0 12 -12 36
-25z"/>
<path d="M4473 3593 c9 -2 25 -2 35 0 9 3 1 5 -18 5 -19 0 -27 -2 -17 -5z"/>
<path d="M4623 3593 c9 -2 23 -2 30 0 6 3 -1 5 -18 5 -16 0 -22 -2 -12 -5z"/>
<path d="M4238 3583 c6 -2 18 -2 25 0 6 3 1 5 -13 5 -14 0 -19 -2 -12 -5z"/>
<path d="M4383 3583 c9 -2 23 -2 30 0 6 3 -1 5 -18 5 -16 0 -22 -2 -12 -5z"/>
<path d="M4150 3565 c-22 -8 -28 -13 -15 -13 11 0 36 6 55 13 22 8 28 13 15
13 -11 0 -36 -6 -55 -13z"/>
<path d="M4328 3573 c7 -3 16 -2 19 1 4 3 -2 6 -13 5 -11 0 -14 -3 -6 -6z"/>
<path d="M4278 3563 c6 -2 18 -2 25 0 6 3 1 5 -13 5 -14 0 -19 -2 -12 -5z"/>
<path d="M4370 3560 c-19 -3 24 -4 95 -2 72 3 132 6 134 8 7 7 -193 2 -229 -6z"/>
<path d="M4640 3550 c34 -11 60 -11 35 0 -11 5 -29 8 -40 8 -16 0 -15 -2 5 -8z"/>
<path d="M4198 3543 c7 -3 16 -2 19 1 4 3 -2 6 -13 5 -11 0 -14 -3 -6 -6z"/>
<path d="M4298 3543 c7 -3 16 -2 19 1 4 3 -2 6 -13 5 -11 0 -14 -3 -6 -6z"/>
<path d="M4140 3533 c-8 -2 -21 -7 -29 -9 -8 -2 -12 -7 -9 -9 3 -3 22 1 44 9
35 13 30 21 -6 9z"/>
<path d="M4167 3516 c-42 -13 -81 -27 -85 -31 -4 -4 2 -5 13 -2 11 3 51 15 89
26 38 11 71 23 74 26 9 9 -10 5 -91 -19z"/>
<path d="M4365 3530 c-18 -5 -2 -6 40 -3 39 3 72 7 74 9 8 7 -84 2 -114 -6z"/>
<path d="M4593 3533 c9 -2 23 -2 30 0 6 3 -1 5 -18 5 -16 0 -22 -2 -12 -5z"/>
<path d="M4750 3516 c25 -14 52 -25 60 -25 18 0 -45 34 -80 43 -14 4 -5 -5 20
-18z"/>
<path d="M4648 3523 c7 -3 16 -2 19 1 4 3 -2 6 -13 5 -11 0 -14 -3 -6 -6z"/>
<path d="M4298 3513 c6 -2 18 -2 25 0 6 3 1 5 -13 5 -14 0 -19 -2 -12 -5z"/>
<path d="M4225 3500 c-25 -11 1 -11 35 0 20 6 21 8 5 8 -11 0 -29 -3 -40 -8z"/>
<path d="M4478 3503 c23 -2 59 -2 80 0 20 2 1 4 -43 4 -44 0 -61 -2 -37 -4z"/>
<path d="M4368 3493 c7 -3 16 -2 19 1 4 3 -2 6 -13 5 -11 0 -14 -3 -6 -6z"/>
<path d="M4110 3470 c-30 -11 -46 -19 -35 -19 11 0 45 9 75 19 30 10 46 19 35
18 -11 0 -45 -8 -75 -18z"/>
<path d="M4308 3483 c7 -3 16 -2 19 1 4 3 -2 6 -13 5 -11 0 -14 -3 -6 -6z"/>
<path d="M4688 3483 c7 -3 16 -2 19 1 4 3 -2 6 -13 5 -11 0 -14 -3 -6 -6z"/>
<path d="M4230 3470 c-11 -8 -7 -9 15 -4 37 8 45 14 19 14 -10 0 -26 -5 -34
-10z"/>
<path d="M4100 3440 c-36 -10 -56 -18 -45 -19 11 0 49 8 85 19 36 10 56 18 45
18 -11 0 -49 -8 -85 -18z"/>
<path d="M3604 3173 c-2 -21 -1 -21 14 -5 9 9 21 20 26 24 5 3 -2 5 -15 5 -17
-1 -24 -8 -25 -24z"/>
<path d="M3545 3170 c3 -5 15 -10 26 -10 10 0 19 5 19 10 0 6 -12 10 -26 10
-14 0 -23 -4 -19 -10z"/>
<path d="M3584 3125 c-10 -26 1 -35 13 -10 6 14 7 25 2 25 -5 0 -12 -7 -15
-15z"/>
<path d="M3617 3124 c-8 -8 1 -24 14 -24 5 0 9 7 9 15 0 15 -12 20 -23 9z"/>
<path d="M3690 3092 c0 -22 -3 -49 -6 -59 -5 -15 -4 -16 6 -3 9 12 11 10 7
-13 -2 -15 0 -30 5 -33 6 -4 7 22 2 67 -8 84 -14 102 -14 41z"/>
<path d="M2296 3752 c-4 -13 -31 -30 -74 -48 -216 -88 -267 -112 -365 -167
-64 -37 -106 -66 -103 -74 3 -6 0 -14 -7 -17 -9 -3 -9 -5 1 -5 6 -1 12 -9 12
-20 0 -10 11 -30 24 -44 14 -15 33 -41 43 -59 10 -18 26 -41 36 -53 10 -11 20
-30 23 -42 4 -13 12 -23 20 -23 8 0 13 -3 12 -7 -1 -5 6 -20 16 -35 10 -15 15
-32 11 -37 -4 -7 1 -8 11 -4 14 5 16 2 12 -14 -11 -40 34 -33 123 20 129 76
388 204 394 195 1 -2 25 -43 54 -93 67 -117 129 -212 180 -281 22 -30 41 -57
41 -59 0 -2 -21 -11 -47 -20 -129 -45 -235 -93 -229 -103 2 -4 0 -14 -6 -22
-8 -12 -9 -12 -4 3 7 22 4 21 -42 -4 l-37 -21 34 7 c19 4 31 3 28 -2 -3 -5 9
-25 26 -44 18 -20 52 -60 77 -89 82 -96 95 -111 137 -157 40 -43 42 -47 25
-60 -20 -17 -21 -17 88 24 83 32 168 58 246 76 l61 14 74 -64 c405 -354 864
-564 1374 -629 173 -22 537 -15 700 14 290 52 543 143 805 289 163 91 274 170
445 316 79 68 80 68 128 63 58 -6 264 -75 350 -117 68 -33 84 -33 35 1 -31 20
-27 21 20 3 25 -9 11 3 -23 21 -27 14 -28 16 -7 16 15 0 22 6 22 20 0 11 7 20
15 20 8 0 15 4 15 10 0 14 70 85 99 100 13 6 60 18 105 25 99 16 136 30 136
50 0 8 9 15 20 15 14 0 20 7 20 24 0 13 16 44 35 69 19 25 35 51 35 56 0 6 6
11 13 11 12 0 52 63 52 82 0 5 5 12 10 16 6 4 16 19 22 35 7 15 18 27 25 27 7
0 24 25 37 56 21 48 23 64 17 126 -7 75 7 138 31 138 7 0 13 7 13 15 0 8 9 19
20 25 11 6 20 16 20 21 0 6 11 20 25 31 14 11 25 26 25 34 0 8 4 14 9 14 14 0
72 83 64 91 -15 14 -193 99 -208 99 -8 0 -15 4 -15 9 0 5 -12 12 -26 15 -58
15 -210 87 -226 108 -9 13 -19 21 -21 18 -2 -3 -30 -66 -62 -140 -53 -125
-132 -283 -195 -390 -33 -56 -112 -181 -122 -195 -5 -5 -43 -57 -85 -115 -168
-230 -367 -431 -599 -606 -450 -338 -935 -503 -1482 -504 -735 0 -1379 304
-1925 910 -60 67 -235 299 -296 392 -93 143 -205 360 -286 553 -43 104 -51
115 -59 87z m-283 -658 c-7 -19 -10 -18 -16 5 -3 13 -1 18 9 14 7 -2 10 -11 7
-19z"/>
<path d="M1494 3275 c-14 -19 -29 -33 -33 -30 -4 2 -23 -14 -42 -37 -19 -22
-41 -48 -50 -57 -75 -79 -123 -171 -116 -223 5 -40 74 -171 163 -311 l50 -77
41 58 c23 33 88 107 145 167 57 59 106 113 111 120 8 15 -1 45 -14 45 -5 0 -9
6 -9 14 0 8 -4 16 -8 18 -17 7 -80 111 -75 124 3 8 -1 14 -10 14 -13 0 -61 61
-66 85 -1 6 -9 14 -17 18 -8 4 -14 16 -14 25 0 10 -7 28 -16 40 -8 12 -12 27
-9 32 15 24 -6 7 -31 -25z"/>
<path d="M8287 3133 c-4 -6 -2 -13 4 -15 14 -5 -21 -77 -38 -78 -7 0 -19 -13
-28 -30 -8 -16 -21 -29 -27 -27 -7 1 -14 -8 -16 -20 -2 -13 -8 -23 -13 -23 -5
0 -9 -4 -9 -10 0 -5 -18 -28 -40 -50 -22 -22 -40 -46 -40 -52 0 -14 -64 -91
-123 -149 -58 -56 -60 -58 -75 -40 -10 13 -10 11 -2 -11 5 -16 6 -28 1 -28 -4
0 -16 27 -26 60 -10 33 -26 73 -36 90 -19 31 -49 41 -49 16 0 -7 -7 -19 -15
-26 -9 -7 -13 -15 -11 -18 5 -4 -34 -61 -61 -90 -28 -30 -13 -38 82 -48 37 -4
65 -12 65 -18 0 -6 4 -5 9 2 6 10 10 9 14 -7 3 -12 1 -21 -4 -21 -5 0 -9 -4
-9 -10 0 -5 -8 -19 -17 -29 -10 -11 -33 -41 -52 -68 -19 -26 -65 -79 -103
-116 -37 -38 -68 -77 -68 -88 0 -10 -5 -19 -10 -19 -6 0 -18 -16 -27 -35 -9
-19 -23 -35 -30 -35 -7 0 -13 -5 -13 -10 0 -6 -9 -20 -19 -32 -11 -11 -17 -28
-14 -37 3 -12 1 -12 -11 3 -9 11 -19 17 -23 13 -3 -4 2 -16 12 -27 10 -11 16
-23 13 -26 -9 -8 -48 47 -41 59 4 6 1 7 -6 3 -7 -5 -22 0 -34 10 -12 10 -5 1
16 -20 20 -21 37 -44 37 -50 0 -7 -40 -52 -90 -100 -49 -49 -90 -90 -90 -91 0
-2 9 -1 20 2 13 3 26 -1 33 -11 15 -20 170 -40 234 -31 25 4 67 23 101 45 130
87 445 453 572 664 90 150 142 306 141 428 0 59 -35 193 -54 205 -6 3 -7 1 -3
-5 4 -7 3 -12 -3 -12 -5 0 -11 5 -13 12 -3 9 -6 9 -11 1z m-370 -535 c-3 -8
-6 -5 -6 6 -1 11 2 17 5 13 3 -3 4 -12 1 -19z m-41 -35 c-10 -10 -19 5 -10 18
6 11 8 11 12 0 2 -7 1 -15 -2 -18z"/>
<path d="M2001 2409 c-104 -102 -219 -264 -208 -292 10 -26 166 -203 215 -245
85 -71 130 -86 237 -79 51 4 104 11 119 17 29 11 56 33 56 46 0 4 -37 45 -82
91 l-82 84 45 40 c24 22 35 37 24 33 -31 -11 -57 -7 -74 12 -12 12 -13 18 -3
21 16 6 15 23 -2 23 -15 0 -86 66 -86 80 0 5 -22 31 -50 58 -27 27 -50 57 -50
67 0 11 -6 15 -19 10 -12 -3 -21 0 -25 10 -3 8 -1 15 4 15 6 0 10 7 10 15 0 8
4 15 9 15 5 0 11 7 15 15 8 23 3 19 -53 -36z m264 -339 c3 -5 1 -10 -4 -10 -6
0 -11 5 -11 10 0 6 2 10 4 10 3 0 8 -4 11 -10z"/>
<path d="M2675 2350 c-3 -5 -2 -10 4 -10 5 0 13 5 16 10 3 6 2 10 -4 10 -5 0
-13 -4 -16 -10z"/>
<path d="M6644 2316 c-49 -49 -46 -84 12 -146 25 -27 55 -52 66 -56 49 -15
117 50 104 100 -15 61 -86 86 -127 45 -16 -16 -24 -18 -32 -9 -9 9 -5 17 15
35 15 12 33 25 40 27 11 4 11 8 -1 21 -20 25 -39 21 -77 -17z m114 -98 c19
-19 15 -48 -7 -48 -28 0 -47 26 -31 45 15 18 22 19 38 3z"/>
<path d="M3005 2283 c-21 -14 -60 -37 -87 -50 -26 -13 -50 -28 -53 -33 -3 -4
7 -18 21 -29 21 -16 30 -19 41 -10 19 17 66 -27 57 -54 -6 -18 20 -57 37 -57
9 0 86 160 96 198 7 28 -21 62 -51 61 -12 0 -39 -12 -61 -26z m33 -73 c-5 -17
-14 -32 -18 -35 -8 -5 -36 23 -29 29 10 8 54 36 56 36 1 0 -3 -14 -9 -30z"/>
<path d="M6503 2196 c-28 -22 -52 -45 -52 -51 0 -5 17 -30 39 -55 l39 -45 31
30 c25 24 34 27 48 19 30 -19 26 -43 -12 -65 -38 -22 -41 -26 -27 -48 13 -20
73 9 101 49 19 26 20 35 10 64 -11 34 -47 66 -73 66 -8 0 -26 -10 -41 -21 -20
-16 -30 -19 -39 -10 -8 8 -1 19 27 43 36 32 37 34 19 49 -17 16 -21 14 -70
-25z"/>
<path d="M3126 2148 c-62 -79 -69 -109 -35 -152 24 -30 69 -56 97 -56 27 0 61
29 112 96 l44 56 -23 19 c-13 11 -26 19 -30 19 -3 0 -27 -27 -51 -60 -36 -49
-50 -60 -70 -58 -41 5 -35 34 19 102 l51 64 -28 21 -29 20 -57 -71z"/>
<path d="M6352 2079 c-36 -27 -50 -44 -44 -52 4 -7 23 -31 41 -55 l33 -42 20
25 c22 28 49 32 68 10 18 -22 6 -41 -34 -55 -38 -12 -41 -17 -27 -39 13 -20
63 -5 96 29 38 39 38 85 1 117 -32 27 -57 29 -92 7 -20 -13 -28 -14 -37 -5 -9
10 -8 14 4 21 40 23 62 48 56 63 -9 25 -26 20 -85 -24z"/>
<path d="M3343 2061 c-11 -17 -9 -23 12 -39 l24 -19 -50 -74 -51 -73 22 -18
c12 -10 27 -18 34 -18 6 1 31 32 56 70 43 67 61 82 75 60 10 -16 33 -12 44 8
8 15 -3 26 -68 70 -42 29 -79 52 -81 52 -3 0 -11 -9 -17 -19z"/>
<path d="M6192 1970 c-44 -31 -51 -50 -29 -69 11 -8 19 -5 37 14 54 58 81 16
55 -84 -24 -94 -8 -102 86 -45 52 31 58 38 48 55 -10 20 -11 20 -46 -1 l-36
-21 8 33 c15 59 10 97 -15 123 -31 33 -58 32 -108 -5z"/>
<path d="M3605 1960 c-11 -17 5 -30 38 -30 48 0 63 14 32 28 -32 15 -62 15
-70 2z"/>
<path d="M3520 1927 c-41 -14 -80 -75 -80 -125 0 -71 108 -135 169 -101 38 22
71 76 71 119 0 77 -83 133 -160 107z m91 -68 c15 -30 -15 -97 -48 -105 -37
-10 -53 2 -53 39 0 69 74 116 101 66z"/>
<path d="M6028 1877 c-24 -9 -27 -17 -30 -59 l-3 -48 -37 26 c-34 24 -39 25
-67 13 -17 -8 -31 -16 -31 -19 0 -3 29 -24 65 -47 44 -29 71 -55 85 -83 23
-45 20 -44 55 -28 30 13 30 15 8 59 -13 26 -17 54 -14 117 1 45 1 82 -1 81 -2
-1 -15 -6 -30 -12z"/>
<path d="M3731 1827 c-14 -18 -81 -165 -81 -180 0 -7 9 -18 19 -24 23 -14 28
-9 56 56 18 41 20 43 26 20 4 -13 7 -45 8 -72 1 -41 4 -49 27 -57 14 -6 31
-10 38 -10 7 0 34 46 61 101 38 81 44 103 34 110 -29 18 -46 8 -71 -43 l-27
-53 0 63 c-1 48 -5 66 -21 82 -23 23 -53 26 -69 7z"/>
<path d="M5760 1756 c-34 -13 -56 -29 -58 -40 -4 -21 55 -181 73 -196 16 -13
149 42 153 63 5 25 -21 30 -63 13 -41 -17 -55 -14 -55 13 0 10 13 22 36 30 24
9 34 18 32 29 -3 17 -13 18 -77 10 -43 -5 -35 21 14 43 32 14 45 26 43 37 -5
24 -35 24 -98 -2z"/>
<path d="M3960 1708 c-20 -13 -40 -39 -49 -61 -32 -85 23 -157 120 -157 43 0
51 4 74 35 35 45 43 103 20 142 -22 37 -44 51 -92 59 -30 4 -45 1 -73 -18z
m91 -38 c40 -22 11 -130 -34 -130 -13 0 -28 5 -35 12 -30 30 1 116 46 127 2 1
12 -4 23 -9z"/>
<path d="M5545 1683 c-11 -3 -24 -8 -28 -12 -8 -8 48 -199 64 -215 5 -5 37 0
79 13 63 20 70 25 70 48 0 23 -3 25 -32 19 -75 -14 -70 -17 -97 72 -14 45 -27
81 -30 81 -4 -1 -15 -3 -26 -6z"/>
<path d="M4196 1657 c-11 -8 -26 -45 -37 -93 -21 -87 -24 -124 -10 -124 5 0
16 -3 24 -6 11 -4 18 8 27 48 20 85 29 90 30 16 0 -56 3 -69 19 -78 30 -15 45
-4 75 57 15 30 29 54 31 51 2 -2 -3 -30 -11 -61 -17 -65 -13 -77 21 -77 19 0
26 7 31 28 3 15 12 52 20 83 19 78 18 106 -5 119 -35 18 -61 12 -79 -21 -9
-17 -25 -41 -34 -53 -17 -20 -17 -20 -18 36 0 47 -4 60 -22 72 -27 19 -39 20
-62 3z"/>
<path d="M5272 1618 c-24 -5 -45 -15 -48 -22 -5 -12 31 -205 40 -213 2 -3 18
-2 34 2 28 6 30 8 25 46 -7 51 16 53 47 4 19 -31 25 -34 53 -28 18 3 34 7 35
9 2 1 -8 19 -21 40 -22 31 -25 44 -20 86 10 82 -28 102 -145 76z m83 -48 c12
-20 -6 -50 -31 -50 -20 0 -24 5 -24 30 0 25 4 30 24 30 14 0 28 -5 31 -10z"/>
<path d="M4477 1500 c-26 -56 -47 -106 -47 -111 0 -15 62 -10 74 5 15 20 67 9
73 -15 4 -14 15 -19 38 -19 l32 0 -15 83 c-25 138 -31 152 -73 155 l-36 3 -46
-101z m86 -42 c-2 -5 -11 -8 -19 -8 -17 0 -18 24 -2 53 12 22 12 21 18 -8 4
-16 5 -33 3 -37z"/>
<path d="M5043 1585 c-49 -21 -66 -55 -61 -122 6 -75 36 -103 110 -103 44 0
54 4 84 34 28 28 34 42 34 76 0 54 -31 105 -72 119 -40 14 -56 13 -95 -4z m77
-55 c13 -13 20 -33 20 -58 0 -43 -14 -62 -45 -62 -33 0 -45 20 -45 72 0 34 5
50 18 57 24 15 29 14 52 -9z"/>
<path d="M4777 1573 c-4 -3 -7 -55 -7 -115 l0 -108 29 0 c25 0 29 4 35 40 6
38 8 40 40 40 48 0 80 29 80 73 0 59 -25 77 -104 77 -37 0 -70 -3 -73 -7z
m113 -68 c0 -20 -5 -25 -25 -25 -20 0 -25 5 -25 25 0 20 5 25 25 25 20 0 25
-5 25 -25z"/>
<path d="M3801 1403 c13 -81 12 -86 -41 -123 -27 -19 -50 -37 -50 -40 0 -3 14
-11 31 -17 29 -11 35 -10 63 14 l31 26 8 -41 c6 -33 13 -42 39 -51 17 -6 32
-10 33 -9 2 2 -2 31 -8 66 l-10 63 49 44 49 43 -28 11 c-38 15 -41 14 -62 -9
-25 -28 -32 -25 -39 15 -5 26 -14 39 -32 45 -39 15 -41 13 -33 -37z"/>
<path d="M5875 1438 c-11 -6 -22 -12 -24 -14 -3 -3 77 -205 85 -213 4 -4 64
19 64 25 0 2 -18 46 -40 98 -22 51 -40 99 -40 105 0 14 -19 14 -45 -1z"/>
<path d="M5778 1403 c-10 -2 -18 -10 -18 -16 0 -11 66 -193 76 -208 6 -11 65
14 61 26 -2 5 -19 54 -38 107 -34 98 -38 103 -81 91z"/>
<path d="M5688 1373 c-24 -6 -23 -12 14 -131 l32 -103 30 7 c17 3 33 8 35 10
2 1 -12 53 -30 113 -34 112 -37 116 -81 104z"/>
<path d="M3983 1263 c-18 -59 -29 -110 -25 -114 4 -4 18 -9 33 -12 24 -6 26
-3 57 96 18 57 32 108 32 114 0 10 -31 23 -55 23 -5 0 -24 -48 -42 -107z"/>
<path d="M4106 1328 c-24 -77 -45 -159 -48 -182 -3 -25 1 -30 26 -37 17 -5 31
-7 32 -6 1 1 16 52 32 114 l30 111 -21 6 c-34 9 -47 7 -51 -6z"/>
<path d="M5561 1321 c-6 -11 -11 -44 -12 -73 0 -45 -2 -50 -12 -34 -47 74 -54
81 -80 84 -60 7 -70 -34 -37 -153 11 -38 20 -73 20 -77 0 -12 24 -9 43 5 16
11 16 16 3 62 -17 55 -14 68 7 33 7 -12 21 -35 31 -50 18 -30 47 -36 64 -15 6
7 12 42 14 77 l3 65 16 -65 c15 -61 18 -65 44 -63 15 1 29 3 30 5 2 2 -9 50
-23 108 l-27 105 -37 3 c-28 2 -39 -1 -47 -17z"/>
<path d="M5291 1271 c-7 -5 -19 -35 -26 -67 l-12 -59 -22 48 c-28 59 -59 77
-96 53 -29 -19 -28 -15 -15 -109 17 -118 17 -117 51 -117 24 0 29 4 25 18 -3
9 -8 40 -11 67 l-6 50 30 -62 c25 -53 34 -63 56 -63 30 0 32 5 43 85 l9 60 7
-40 c4 -22 10 -52 12 -67 5 -25 9 -27 32 -22 15 4 28 8 29 9 7 4 -29 200 -38
211 -13 16 -47 18 -68 5z"/>
<path d="M4505 1210 c14 -27 25 -57 25 -65 0 -9 -16 -37 -36 -63 l-36 -47 24
-6 c42 -12 48 -9 70 28 l22 36 18 -41 c15 -38 21 -42 53 -42 19 0 35 1 35 3 0
2 -11 26 -25 53 -31 62 -31 70 5 118 38 50 38 60 0 63 -23 2 -34 -5 -51 -29
l-22 -31 -19 37 c-16 31 -23 36 -53 36 l-35 0 25 -50z"/>
<path d="M4720 1193 c0 -27 -3 -78 -6 -114 l-6 -66 34 -6 c18 -2 34 -3 36 -2
2 2 6 55 9 119 l6 116 -37 0 -36 0 0 -47z"/>
<path d="M4250 1171 c0 -26 97 -52 111 -30 14 23 11 26 -35 38 -62 15 -76 14
-76 -8z"/>
<path d="M4900 1104 c0 -24 3 -26 31 -20 17 3 42 6 55 6 17 0 24 6 24 20 0 18
-7 20 -55 20 -53 0 -55 -1 -55 -26z"/>
</g>
</svg>
